<?xml version="1.0" encoding="UTF-8"?>
<svg width="80px" height="50px" viewBox="0 0 80 50" version="1.1" xmlns="http://www.w3.org/2000/svg" xmlns:xlink="http://www.w3.org/1999/xlink">
    <!-- Generator: Sketch 52.5 (67469) - http://www.bohemiancoding.com/sketch -->
    <title>Path</title>
    <desc>Created with Sketch.</desc>
    <g id="Desktop" stroke="none" stroke-width="1" fill="none" fill-rule="evenodd">
        <g id="Artboard" transform="translate(-1305.000000, -346.000000)" fill="#333333">
            <g id="noun_down-arrow_2098279" transform="translate(1305.000000, 346.000000)">
                <path d="M40,-15 C39.4472656,-15 39,-14.5527344 39,-14 L39,61.5859375 L16.8417969,39.4277344 C16.4511719,39.0371094 15.8183594,39.0371094 15.4277344,39.4277344 C15.0371094,39.8183594 15.0371094,40.4511719 15.4277344,40.8417969 L39.2929688,64.7070313 C39.4882812,64.9023438 39.7441406,65 40,65 C40.2558594,65 40.5117188,64.9023438 40.7070312,64.7070312 L64.5722656,40.8417968 C64.9628906,40.4511718 64.9628906,39.8183593 64.5722656,39.4277343 C64.1816406,39.0371093 63.5488281,39.0371093 63.1582031,39.4277343 L41,61.5859375 L41,-14 C41,-14.5527344 40.5527344,-15 40,-15 Z" id="Path" transform="translate(40.000000, 25.000000) scale(-1, 1) rotate(90.000000) translate(-40.000000, -25.000000) "></path>
            </g>
        </g>
    </g>
</svg>