<?xml version="1.0" encoding="UTF-8"?>
<svg width="43px" height="37px" viewBox="0 0 43 37" version="1.1" xmlns="http://www.w3.org/2000/svg" xmlns:xlink="http://www.w3.org/1999/xlink">
    <!-- Generator: Sketch 52.5 (67469) - http://www.bohemiancoding.com/sketch -->
    <title>noun_Arrow_630089</title>
    <desc>Created with Sketch.</desc>
    <g id="Desktop" stroke="none" stroke-width="1" fill="none" fill-rule="evenodd">
        <g id="Assemble-case-study" transform="translate(-635.000000, -13043.000000)" fill="#333333">
            <g id="noun_Arrow_630089" transform="translate(656.000000, 13061.500000) scale(-1, 1) rotate(90.000000) translate(-656.000000, -13061.500000) translate(633.500000, 13039.500000)">
                <path d="M37.2962602,7.52989423 C36.4590509,6.69268493 35.1423305,6.70126577 34.2941377,7.54945854 L11.3939626,30.2926569 L11.5103188,12.4379287 C11.5178699,11.2792148 10.5760094,10.3373543 9.41729549,10.3449054 C8.25858157,10.3524566 7.3043647,11.3066734 7.29681357,12.4653874 L7.1337777,37.4830744 L32.6254841,37.3169494 C33.784198,37.3093983 34.7384149,36.3551814 34.745966,35.1964675 C34.7535171,34.0377536 33.8116567,33.0958931 32.6529427,33.1034442 L14.376864,33.2225462 L37.2766959,10.5320167 C38.1248887,9.6838239 38.1334695,8.36710353 37.2962602,7.52989423 Z" id="Path" transform="translate(22.526163, 22.195340) rotate(-45.000000) translate(-22.526163, -22.195340) "></path>
            </g>
        </g>
    </g>
</svg>