<?xml version="1.0" encoding="UTF-8"?>
<svg width="43px" height="38px" viewBox="0 0 43 38" version="1.1" xmlns="http://www.w3.org/2000/svg" xmlns:xlink="http://www.w3.org/1999/xlink">
    <!-- Generator: Sketch 52.5 (67469) - http://www.bohemiancoding.com/sketch -->
    <title>Path</title>
    <desc>Created with Sketch.</desc>
    <g id="Desktop" stroke="none" stroke-width="1" fill="none" fill-rule="evenodd">
        <g id="arrow-down" transform="translate(-2.000000, -4.000000)" fill="#2E5266">
            <g id="noun_Arrow_630089" transform="translate(23.000000, 22.500000) scale(-1, 1) translate(-23.000000, -22.500000) translate(0.500000, 0.500000)">
                <path d="M37.2962606,7.52989423 C36.4590513,6.69268493 35.1423309,6.70126577 34.2941381,7.54945854 L11.393963,30.2926569 L11.5103192,12.4379287 C11.5178703,11.2792148 10.5760098,10.3373543 9.41729588,10.3449054 C8.25858196,10.3524566 7.30436509,11.3066734 7.29681396,12.4653874 L7.13377809,37.4830744 L32.6254845,37.3169494 C33.7841984,37.3093983 34.7384153,36.3551814 34.7459664,35.1964675 C34.7535175,34.0377536 33.8116571,33.0958931 32.6529431,33.1034442 L14.3768644,33.2225462 L37.2766963,10.5320167 C38.1248891,9.6838239 38.1334699,8.36710353 37.2962606,7.52989423 Z" id="Path" transform="translate(22.526163, 22.195340) rotate(45.000000) translate(-22.526163, -22.195340) "></path>
            </g>
        </g>
    </g>
</svg>