<?xml version="1.0" encoding="UTF-8"?>
<svg width="50px" height="80px" viewBox="0 0 50 80" version="1.1" xmlns="http://www.w3.org/2000/svg" xmlns:xlink="http://www.w3.org/1999/xlink">
    <!-- Generator: Sketch 52.5 (67469) - http://www.bohemiancoding.com/sketch -->
    <title>Path</title>
    <desc>Created with Sketch.</desc>
    <g id="Desktop" stroke="none" stroke-width="1" fill="none" fill-rule="evenodd">
        <g id="Artboard" transform="translate(-1320.000000, -331.000000)" fill="#333333">
            <g id="noun_down-arrow_2098279" transform="translate(1320.000000, 331.000000)">
                <path d="M25,0 C24.4472656,0 24,0.4472656 24,1 L24,76.5859375 L1.8417969,54.4277344 C1.4511719,54.0371094 0.8183594,54.0371094 0.4277344,54.4277344 C0.0371094,54.8183594 0.0371094,55.4511719 0.4277344,55.8417969 L24.2929688,79.7070313 C24.4882812,79.9023438 24.7441406,80 25,80 C25.2558594,80 25.5117188,79.9023438 25.7070312,79.7070312 L49.5722656,55.8417968 C49.9628906,55.4511718 49.9628906,54.8183593 49.5722656,54.4277343 C49.1816406,54.0371093 48.5488281,54.0371093 48.1582031,54.4277343 L26,76.5859375 L26,1 C26,0.4472656 25.5527344,0 25,0 Z" id="Path"></path>
            </g>
        </g>
    </g>
</svg>