<?xml version="1.0" encoding="UTF-8"?>
<svg width="37px" height="62px" viewBox="0 0 37 62" version="1.1" xmlns="http://www.w3.org/2000/svg" xmlns:xlink="http://www.w3.org/1999/xlink">
    <!-- Generator: Sketch 52.5 (67469) - http://www.bohemiancoding.com/sketch -->
    <title>Shape</title>
    <desc>Created with Sketch.</desc>
    <g id="Desktop" stroke="none" stroke-width="1" fill="none" fill-rule="evenodd">
        <g id="Assemble-case-study-Copy" transform="translate(-666.000000, -13270.000000)" fill="#333333" fill-rule="nonzero">
            <path d="M667.682277,13288.6296 C668.112832,13288.6296 668.543387,13288.4777 668.871349,13288.1755 L682.852622,13275.2899 L682.852622,13330.45 C682.852622,13331.3071 683.604411,13332 684.534478,13332 C685.464545,13332 686.216334,13331.3071 686.216334,13330.45 L686.216334,13275.2899 L700.128651,13288.1119 C700.786257,13288.718 701.84919,13288.718 702.506796,13288.1119 C703.164401,13287.5059 703.164401,13286.5262 702.506796,13285.9202 L685.725232,13270.4538 C685.570502,13270.3096 685.383816,13270.1965 685.175265,13270.1174 C684.764892,13269.9609 684.302382,13269.9609 683.890327,13270.1174 C683.683459,13270.1965 683.496773,13270.3112 683.342042,13270.4538 L666.493204,13285.9837 C665.835599,13286.5898 665.835599,13287.5694 666.493204,13288.1755 C666.821166,13288.4793 667.251722,13288.6296 667.682277,13288.6296 Z" id="Shape" transform="translate(684.500000, 13301.000000) rotate(180.000000) translate(-684.500000, -13301.000000) "></path>
        </g>
    </g>
</svg>