<?xml version="1.0" encoding="UTF-8"?>
<svg width="1280px" height="1024px" viewBox="0 0 1280 1024" version="1.1" xmlns="http://www.w3.org/2000/svg" xmlns:xlink="http://www.w3.org/1999/xlink">
    <!-- Generator: Sketch 53.2 (72643) - https://sketchapp.com -->
    <title>assemble sign-in</title>
    <desc>Created with Sketch.</desc>
    <defs>
        <rect id="path-1" x="376" y="187" width="529" height="442"></rect>
        <filter x="-0.2%" y="-0.1%" width="100.4%" height="100.5%" filterUnits="objectBoundingBox" id="filter-2">
            <feOffset dx="0" dy="0.5" in="SourceAlpha" result="shadowOffsetOuter1"></feOffset>
            <feGaussianBlur stdDeviation="0.25" in="shadowOffsetOuter1" result="shadowBlurOuter1"></feGaussianBlur>
            <feComposite in="shadowBlurOuter1" in2="SourceAlpha" operator="out" result="shadowBlurOuter1"></feComposite>
            <feColorMatrix values="0 0 0 0 0   0 0 0 0 0   0 0 0 0 0  0 0 0 0.5 0" type="matrix" in="shadowBlurOuter1"></feColorMatrix>
        </filter>
        <rect id="path-3" x="0" y="0" width="108" height="35" rx="17.5"></rect>
        <filter x="-6.5%" y="-14.3%" width="113.0%" height="140.0%" filterUnits="objectBoundingBox" id="filter-4">
            <feOffset dx="0" dy="2" in="SourceAlpha" result="shadowOffsetOuter1"></feOffset>
            <feGaussianBlur stdDeviation="2" in="shadowOffsetOuter1" result="shadowBlurOuter1"></feGaussianBlur>
            <feColorMatrix values="0 0 0 0 0.164705882   0 0 0 0 0.164705882   0 0 0 0 0.176470588  0 0 0 0.27 0" type="matrix" in="shadowBlurOuter1"></feColorMatrix>
        </filter>
    </defs>
    <g id="assemble-sign-in" stroke="none" stroke-width="1" fill="none" fill-rule="evenodd">
        <rect fill="#FFFFFF" x="0" y="0" width="1280" height="1024"></rect>
        <g id="Rectangle-14" fill-rule="nonzero">
            <use fill="black" fill-opacity="1" filter="url(#filter-2)" xlink:href="#path-1"></use>
            <rect stroke="#434446" stroke-width="0.5" stroke-linejoin="square" fill="#FFFFFF" fill-rule="evenodd" x="376.25" y="187.25" width="528.5" height="441.5"></rect>
        </g>
        <g id="Group-2" transform="translate(416.000000, 217.000000)">
            <g id="Group-11" transform="translate(2.000000, 60.000000)">
                <g id="Group-5" transform="translate(0.000000, 26.000000)" fill="#434446" font-family="OpenSans-Regular, Open Sans" font-size="14" font-weight="normal" letter-spacing="0.1435547">
                    <text id="Email">
                        <tspan x="0" y="15">Email</tspan>
                    </text>
                </g>
                <g id="Group-14" transform="translate(0.000000, 196.000000)">
                    <g id="Group-7">
                        <text id="Remember-my-password" font-family="OpenSans-Regular, Open Sans" font-size="12" font-weight="normal" fill="#434446">
                            <tspan x="20" y="13">Remember my password</tspan>
                        </text>
                        <path d="M0.5,1.5 L0.5,15.5 L14.5,15.5 L14.5,1.5 L0.5,1.5 Z" id="Rectangle-15" stroke="#2A2A2D" fill="#FFFFFF" fill-rule="nonzero"></path>
                    </g>
                </g>
                <g id="Group-5" transform="translate(0.000000, 116.211626)" fill="#434446" font-family="OpenSans-Regular, Open Sans" font-size="14" font-weight="normal" letter-spacing="0.1435547">
                    <text id="Password">
                        <tspan x="0" y="15">Password</tspan>
                    </text>
                </g>
                <path d="M4,141.5 C2.06700338,141.5 0.5,143.067003 0.5,145 L0.5,181 C0.5,182.932997 2.06700338,184.5 4,184.5 L443,184.5 C444.932997,184.5 446.5,182.932997 446.5,181 L446.5,145 C446.5,143.067003 444.932997,141.5 443,141.5 L4,141.5 Z" id="Rectangle-4" stroke="#434446" fill-rule="nonzero"></path>
                <path d="M0.416201117,16.25 L446.583799,16.25" id="Line-4" stroke="#434446" stroke-width="0.5" stroke-linecap="square" fill-rule="nonzero"></path>
                <polygon id="Rectangle" fill="#FFFFFF" fill-rule="nonzero" points="199.77037 0 247.22963 0 247.22963 33 199.77037 33"></polygon>
                <text id="or" font-family="OpenSans-Regular, Open Sans" font-size="16" font-weight="normal" fill="#434446">
                    <tspan x="214" y="20">or</tspan>
                </text>
                <g id="Group-5" transform="translate(100.000000, 304.000000)" fill="#434446" font-family="OpenSans-Regular, Open Sans" font-size="13" font-weight="normal" letter-spacing="0.203125">
                    <text id="Already-have-an-acco">
                        <tspan x="0" y="14">Already have an account? </tspan>
                        <tspan x="161.998535" y="14" font-family="OpenSans-SemiBold, Open Sans" font-weight="500" letter-spacing="0.1886161" text-decoration="underline">Sign-Up here</tspan>
                    </text>
                </g>
            </g>
            <g id="Group-5" transform="translate(10.000000, 122.000000)" fill="#C1C1C1" font-family="OpenSans-Regular, Open Sans" font-size="14" font-weight="normal" letter-spacing="0.1435547">
                <text id="********" opacity="0.495424107">
                    <tspan x="2" y="106">********</tspan>
                </text>
                <text id="name@domain.com" opacity="0.498660714">
                    <tspan x="0" y="15">name@domain.com</tspan>
                </text>
            </g>
            <rect id="Rectangle-4" stroke="#434446" fill-rule="nonzero" x="0.5" y="111.5" width="446" height="43" rx="4"></rect>
            <g id="Group-26" transform="translate(2.000000, 0.000000)">
                <rect id="Rectangle-4" fill="#4285F4" fill-rule="nonzero" x="0" y="0" width="447" height="36.25" rx="4"></rect>
                <g id="Group-18" transform="translate(131.000000, 8.000000)" fill="#FFFFFF">
                    <g id="Group-21">
                        <g id="Group-24">
                            <text id="Sign-in-with-Google" font-family="Roboto-Medium, Roboto" font-size="17" font-weight="400" letter-spacing="0.1328125">
                                <tspan x="29" y="16">Sign-in with Google</tspan>
                            </text>
                            <path d="M8.548875,12.115 L8.548875,8.953 L16.5586318,8.953 C16.6784358,9.4885 16.7725676,9.99 16.7725676,10.6955 C16.7725676,15.549 13.4950709,19 8.55743243,19 C3.83372973,19 -6.39488462e-15,15.192 -6.39488462e-15,10.5 C-6.39488462e-15,5.808 3.83372973,2 8.55743243,2 C10.8679392,2 12.8019189,2.8415 14.2823547,4.2185 L11.8520439,6.5645 C11.2359088,5.9865 10.1576723,5.3065 8.55743243,5.3065 C5.7249223,5.3065 3.41441554,7.644 3.41441554,10.5085 C3.41441554,13.373 5.7249223,15.7105 8.55743243,15.7105 C11.8349291,15.7105 13.041527,13.458 13.2640203,12.1235 L8.548875,12.1235 L8.548875,12.115 Z" id="Shape-Copy"></path>
                        </g>
                    </g>
                </g>
            </g>
        </g>
        <g id="Group-12" transform="translate(586.000000, 523.000000)">
            <g id="Rectangle-path" fill-rule="nonzero">
                <use fill="black" fill-opacity="1" filter="url(#filter-4)" xlink:href="#path-3"></use>
                <use fill="#2FA565" xlink:href="#path-3"></use>
            </g>
            <text id="Sign-in" font-family="Montserrat-Bold, Montserrat" font-size="16" font-weight="bold" fill="#FFFFFF">
                <tspan x="24" y="23">Sign-in</tspan>
            </text>
        </g>
        <g id="Group-47" transform="translate(0.000000, 923.000000)">
            <g id="Group-61">
                <rect id="Rectangle-4" fill="#E6F1FC" fill-rule="nonzero" x="0" y="0" width="1281" height="101"></rect>
                <g id="Group-50" transform="translate(90.000000, 43.000000)">
                    <text id="Terms-of-Service" font-family="OpenSans-SemiBold, Open Sans" font-size="15" font-weight="500" fill="#2183E2">
                        <tspan x="738" y="16">Terms of Service</tspan>
                    </text>
                    <text id="Privacy-Policy" font-family="OpenSans-SemiBold, Open Sans" font-size="15" font-weight="500" fill="#2183E2">
                        <tspan x="903" y="16">Privacy Policy</tspan>
                    </text>
                    <text id="Contact" font-family="OpenSans-SemiBold, Open Sans" font-size="15" font-weight="500" fill="#2183E2">
                        <tspan x="1043" y="16">Contact</tspan>
                    </text>
                    <g id="Group-49">
                        <text id="2018-Assemble---All" font-family="OpenSans-SemiBold, Open Sans" font-size="15" font-weight="500" fill="#2183E2">
                            <tspan x="13.0201181" y="16">2018 Assemble - All Rights Reserved</tspan>
                        </text>
                        <g id="Group-44" transform="translate(0.000000, 4.000000)">
                            <ellipse id="Oval-3" stroke="#2183E2" fill-rule="nonzero" cx="5.1382511" cy="6.5" rx="5.1382511" ry="5"></ellipse>
                            <text id="C" font-family="OpenSans-Regular, Open Sans" font-size="8" font-weight="normal" fill="#2183E2">
                                <tspan x="2.05530044" y="9.5">C</tspan>
                            </text>
                        </g>
                    </g>
                </g>
            </g>
        </g>
        <g id="Group-8" transform="translate(90.000000, 56.000000)">
            <ellipse id="Circle-3" fill="#2183E2" cx="40.6878052" cy="25.3333333" rx="17.1792955" ry="17.3333333"></ellipse>
            <ellipse id="Circle-3" fill="#FFFFFF" cx="40.6878052" cy="30.6666667" rx="17.1792955" ry="17.3333333"></ellipse>
            <ellipse id="Circle-1" stroke="#FFFFFF" stroke-width="3" fill="#2183E2" cx="41.1398919" cy="4.88888889" rx="4.97295397" ry="4.88888889"></ellipse>
            <ellipse id="Circle-2" fill="#2183E2" transform="translate(13.231347, 30.526137) scale(-1, 1) rotate(8.000000) translate(-13.231347, -30.526137) " cx="13.2313468" cy="30.5261373" rx="11.5240763" ry="11.2873258"></ellipse>
            <ellipse id="Circle-2" fill="#FFFFFF" transform="translate(15.792253, 34.706628) scale(-1, 1) rotate(8.000000) translate(-15.792253, -34.706628) " cx="15.7922527" cy="34.7066283" rx="11.5240763" ry="11.2873258"></ellipse>
            <ellipse id="Circle-1" stroke="#FFFFFF" stroke-width="3" fill="#2183E2" cx="4.69499404" cy="18.8207624" rx="4.69499404" ry="4.59854015"></ellipse>
            <ellipse id="Circle-2" fill="#2183E2" transform="translate(68.649150, 30.614252) rotate(5.000000) translate(-68.649150, -30.614252) " cx="68.6491499" cy="30.6142519" rx="11.5240763" ry="11.2873258"></ellipse>
            <ellipse id="Circle-2" fill="#FFFFFF" transform="translate(65.825373, 35.543195) rotate(5.000000) translate(-65.825373, -35.543195) " cx="65.8253731" cy="35.5431952" rx="11.5240763" ry="11.2873258"></ellipse>
            <ellipse id="Circle-1" stroke="#FFFFFF" stroke-width="3" fill="#2183E2" transform="translate(77.788886, 19.369883) scale(-1, 1) rotate(-3.000000) translate(-77.788886, -19.369883) " cx="77.7888862" cy="19.3698827" rx="4.69499404" ry="4.59854015"></ellipse>
            <ellipse id="Circle-3" fill="#2183E2" cx="40.6878052" cy="25.3333333" rx="17.1792955" ry="17.3333333"></ellipse>
            <ellipse id="Circle-3" fill="#FFFFFF" cx="40.6878052" cy="30.6666667" rx="17.1792955" ry="17.3333333"></ellipse>
            <ellipse id="Circle-1" stroke="#FFFFFF" stroke-width="3" fill="#2183E2" cx="41.1398919" cy="4.88888889" rx="4.97295397" ry="4.88888889"></ellipse>
            <ellipse id="Circle-2" fill="#2183E2" transform="translate(13.231347, 30.526137) scale(-1, 1) rotate(8.000000) translate(-13.231347, -30.526137) " cx="13.2313468" cy="30.5261373" rx="11.5240763" ry="11.2873258"></ellipse>
            <ellipse id="Circle-2" fill="#FFFFFF" transform="translate(15.792253, 34.706628) scale(-1, 1) rotate(8.000000) translate(-15.792253, -34.706628) " cx="15.7922527" cy="34.7066283" rx="11.5240763" ry="11.2873258"></ellipse>
            <ellipse id="Circle-1" stroke="#FFFFFF" stroke-width="3" fill="#2183E2" cx="4.69499404" cy="18.8207624" rx="4.69499404" ry="4.59854015"></ellipse>
            <ellipse id="Circle-2" fill="#2183E2" transform="translate(68.649150, 30.614252) rotate(5.000000) translate(-68.649150, -30.614252) " cx="68.6491499" cy="30.6142519" rx="11.5240763" ry="11.2873258"></ellipse>
            <ellipse id="Circle-2" fill="#FFFFFF" transform="translate(65.825373, 35.543195) rotate(5.000000) translate(-65.825373, -35.543195) " cx="65.8253731" cy="35.5431952" rx="11.5240763" ry="11.2873258"></ellipse>
            <ellipse id="Circle-1" stroke="#FFFFFF" stroke-width="3" fill="#2183E2" transform="translate(77.788886, 19.369883) scale(-1, 1) rotate(-3.000000) translate(-77.788886, -19.369883) " cx="77.7888862" cy="19.3698827" rx="4.69499404" ry="4.59854015"></ellipse>
            <path d="M12.301973,38.1922187 C26.905919,37.7402734 57.4714116,38.1748988 70.4444312,38.5763722 C79.093111,38.8440211 79.1842196,39.3185637 70.717757,40 L12.301973,40 C2.566009,39.0961093 2.566009,38.4935156 12.301973,38.1922187 Z" id="Rectangle-17" fill="#2183E2"></path>
            <text id="Assemble" font-family="Montserrat-Medium, Montserrat" font-size="32" font-weight="400" letter-spacing="1.454545" fill="#2183E2">
                <tspan x="93" y="38">A</tspan>
                <tspan x="117.718545" y="38" letter-spacing="0.72">s</tspan>
                <tspan x="134.470545" y="38" letter-spacing="0.32">s</tspan>
                <tspan x="150.822545" y="38" letter-spacing="-1.68">e</tspan>
                <tspan x="168.726545" y="38" letter-spacing="-3.18">m</tspan>
                <tspan x="199.370545" y="38" letter-spacing="-1.88">b</tspan>
                <tspan x="219.314545" y="38" letter-spacing="-2.08">l</tspan>
                <tspan x="226.162545" y="38" letter-spacing="2.115703">e</tspan>
            </text>
        </g>
        <g id="Group-41" transform="translate(787.000000, 71.000000)" font-family="OpenSans-SemiBold, Open Sans" font-size="17" font-weight="500">
            <text id="Pricing" fill="#434446">
                <tspan x="249" y="18">Pricing</tspan>
            </text>
            <text id="Sign-up" fill="#288F57">
                <tspan x="342" y="18">Sign-up</tspan>
            </text>
            <text id="Features" fill="#434446">
                <tspan x="0" y="18">Features</tspan>
            </text>
            <text id="Testimonials" fill="#434446">
                <tspan x="107" y="18">Testimonials</tspan>
            </text>
        </g>
        <g id="Group-70" transform="translate(232.000000, 429.000000)">
            <g id="Group-34">
                <g id="Group-40">
                    <g id="Group-2" transform="translate(79.238095, 5.777778)">
                        <path d="M4.26996899,22.5178375 C6.14901961,17.6670443 1.00736637,12.4083697 7.67363072,7.80048676 C12.1672428,4.69526237 22.2172153,7.70210772 20.4227432,15.9829098 C19.0429783,22.3524461 13.9250656,20.9576415 10.6187689,25.5873016 L4.26996899,22.5178375" id="Fill-8" fill="#FBF187" transform="translate(12.380952, 16.095238) rotate(-28.000000) translate(-12.380952, -16.095238) "></path>
                        <path d="M8.22362965,24.1925828 C8.29781391,23.859742 8.43121199,23.5185169 8.52075962,23.2058376 C8.74963849,22.4077217 8.93513843,21.5978677 9.17411548,20.8017797 C9.70609678,19.0348964 10.1878623,17.2594727 10.9245968,15.5608344 C11.4359103,14.3837831 11.921605,13.1997513 12.9061967,12.3311676 C13.4382173,11.8616418 13.3869013,12.7944538 13.3576284,13.0693448 C13.3103202,13.5106757 13.2417548,13.9370316 13.134997,14.3671313 C13.0113828,14.8646181 12.8331519,15.346545 12.6623474,15.8312017 C12.5349218,16.0809785 12.4427023,16.3392567 12.4074176,16.6019805 C12.4070247,16.6045934 12.4063174,16.6066602 12.4053744,16.609 C12.4059245,16.609156 12.4061995,16.609234 12.4067103,16.609351 C12.4033705,16.6324373 12.3993626,16.6548217 12.3975159,16.67783 C12.3690288,16.9899243 12.8441931,17.0167153 12.9260394,16.7387436 C13.0130331,16.4427551 13.111225,16.1499645 13.2096921,15.8582267 C13.6456425,15.0592529 14.4948322,14.2590312 15.076047,13.8322462 C15.7840981,13.3126871 15.209838,14.9630859 15.1316852,15.1890354 C15.0679528,15.3745839 14.9943972,15.5637202 14.9171481,15.7533243 C14.661511,16.1048058 14.4548717,16.4837802 14.4173081,16.8597128 C14.3897247,17.1342138 14.7960879,17.2027708 14.9190342,16.9874675 C14.9988765,16.8471167 15.1373433,16.595351 15.2917629,16.2839587 C15.3374994,16.2300256 15.3814677,16.1739477 15.4180883,16.1115133 C15.6476745,15.7149901 15.9228792,15.3759098 16.2259816,15.0349967 C16.4926992,14.7350695 16.7653106,14.4410699 17.0622048,14.1707026 C17.4781161,13.7920792 17.648842,14.0892765 17.4767801,14.5611422 C17.3192565,14.9945566 17.1741492,15.4104223 16.9548577,15.8185666 C16.5592214,16.5559249 16.0612674,17.2634114 15.6104252,17.969299 C14.6693302,19.4404278 13.74686,20.9259077 12.8375134,22.4164571 C12.1942557,23.4714473 11.465026,24.4712565 10.7766605,25.4980517 L8.22362965,24.1925828 Z M11.2301354,29.2616286 C11.2301354,29.2616286 12.6237229,28.8881918 11.8367332,28.1062208 C11.8367332,28.1062208 13.4243863,27.6125947 12.6680055,26.4654932 L11.2324144,25.7315277 C12.2220355,24.1823265 13.2896523,22.6758272 14.2742048,21.1280299 C14.883553,20.1683878 15.4757697,19.1959936 16.077063,18.2314769 C16.6712444,17.2790102 17.358156,16.3462372 17.788802,15.3075868 C18.0153233,14.7607686 18.3586219,14.0602236 18.0096652,13.5013163 C17.7728885,13.121835 17.2695907,13.3634614 16.9977651,13.5438233 C16.6204392,13.7933271 16.2986728,14.1388809 15.9945095,14.4862286 C16.1657069,13.7877895 16.135491,13.190314 15.6007985,13.0637682 C14.9485428,12.9085595 14.0825359,13.9853491 13.7357009,14.3788694 C13.7063101,14.41229 13.6766443,14.4468805 13.6462319,14.480769 C13.7180586,14.2145744 13.7786476,13.9447531 13.8210049,13.6695891 C13.9175466,13.0488713 14.1268971,12.2501315 13.6657209,11.7381767 C12.9578271,10.952657 11.6293866,12.930008 11.3773251,13.3471606 C10.2001215,15.2953027 9.54220772,17.6240961 8.9358457,19.794522 C8.63030714,20.8888994 8.31353092,21.9835886 8.00025173,23.0763281 C7.93463324,23.3047734 7.81243353,23.6114081 7.7129056,23.9308338 L6.54198879,23.3324224 C6.54198879,23.3324224 5.08879458,23.3583945 5.62085446,24.9489327 C5.62085446,24.9489327 4.2786616,25.0196345 4.94203705,26.139477 C4.94203705,26.139477 3.58063015,26.2592373 4.37681429,27.3857482 L5.62258333,28.0854353 L6.01535127,29.6658342 L7.57223841,30.5396825 L9.12276017,29.9820621 L10.2195713,30.4620002 C10.2195713,30.4620002 11.9669485,30.6797993 11.2301354,29.2616286 L11.2301354,29.2616286 Z" id="Fill-9" fill="#33403D" transform="translate(11.142857, 21.047619) rotate(-28.000000) translate(-11.142857, -21.047619) "></path>
                        <path d="M17.6174858,7.4272904 C17.9877244,7.44177189 18.4321307,7.33108061 18.7895507,7.21633451 C19.4226775,7.01333028 19.9986137,6.66124564 20.5482696,6.24054505 C20.6838294,6.13685754 20.6598642,5.81331462 20.4796751,5.79730598 C19.7626059,5.73379804 19.1765091,5.81610559 18.5116574,6.17909085 C18.1466063,6.37835622 17.5127506,6.38146316 17.3549834,6.93739459 C17.2838595,7.18842472 17.3922388,7.41849618 17.6174858,7.4272904" id="Fill-10" fill="#FBF187" transform="translate(18.984127, 6.603175) rotate(-28.000000) translate(-18.984127, -6.603175) "></path>
                        <path d="M3.18502052,8.95499134 C3.4622251,8.48508123 3.17446626,7.95372133 3.0475047,7.47777349 C2.98350656,7.23797236 2.88856994,7.00325564 2.81613873,6.7648845 C2.73615399,6.50168717 2.69460952,6.23511348 2.55264435,5.98661325 C2.44968856,5.8064347 2.08380749,5.67924517 1.89703845,5.87968189 C1.46079564,6.34764563 1.69811131,6.89445734 1.8935721,7.39964051 C2.0966899,7.92512156 2.24983017,8.52150621 2.6640332,8.97636172 C2.78892529,9.11368034 3.08734187,9.1206714 3.18502052,8.95499134" id="Fill-11" fill="#FBF187" transform="translate(2.476190, 7.428571) rotate(-28.000000) translate(-2.476190, -7.428571) "></path>
                        <path d="M4.38832758,3.39417513 C4.09648735,3.81103677 4.12747454,4.36612297 4.12830793,4.85630005 C4.12936862,5.42493617 4.23020957,5.94720315 4.38741842,6.48992936 C4.4277245,6.62899839 4.6316793,6.64381502 4.69210054,6.51303716 C4.91564016,6.02915523 4.96723496,5.54995627 4.94901389,5.02062644 C4.93230808,4.53670613 4.99000184,3.95801312 4.84893057,3.49340049 C4.79377489,3.31145535 4.50939734,3.2212121 4.38832758,3.39417513" id="Fill-12" fill="#FBF187" transform="translate(4.539683, 4.952381) rotate(-28.000000) translate(-4.539683, -4.952381) "></path>
                        <path d="M12.6212038,4.94640149 C12.8543556,4.89046816 13.0789104,4.72666077 13.2681324,4.60632833 C13.5498049,4.42699417 13.8172092,4.2420408 14.0794374,4.04396361 C14.3648008,3.82836336 14.6552952,3.61638602 14.9266154,3.38862314 C15.1918593,3.16581403 15.5260585,2.9363506 15.6705855,2.64056569 C15.7096992,2.5606398 15.6494759,2.47380081 15.5388413,2.47624074 C15.1811469,2.48415199 14.7962665,2.65749726 14.5090578,2.82274642 C14.1217018,3.0457034 13.7591914,3.28085998 13.4208513,3.55357656 C13.0713937,3.83535041 12.1890629,4.3844804 12.4185238,4.86233514 C12.4514711,4.93098563 12.5337044,4.96754747 12.6212038,4.94640149" id="Fill-13" fill="#FBF187" transform="translate(14.031746, 3.714286) rotate(-28.000000) translate(-14.031746, -3.714286) "></path>
                        <path d="M16.0432474,5.76810516 C15.9300191,5.79817664 16.1386021,5.73964028 16.1436648,5.73639214 C16.1689783,5.71948785 16.1945999,5.70583169 16.223039,5.69231524 C16.3180416,5.64729533 16.4118115,5.60265961 16.512405,5.55739521 C16.7810359,5.43658538 17.0601444,5.32995561 17.3385925,5.22458317 C17.8775273,5.02092832 18.463435,4.85251404 18.8927954,4.54257868 C19.1185915,4.37968275 18.8839027,4.13481495 18.6416418,4.12779478 C18.0073964,4.10935373 17.3100213,4.40909063 16.7504836,4.66478556 C16.454162,4.80029933 15.3669155,5.31102559 15.7717549,5.69217553 C15.8409598,5.75717325 15.933497,5.79726856 16.0432474,5.76810516" id="Fill-14" fill="#FBF187" transform="translate(17.333333, 4.952381) rotate(-28.000000) translate(-17.333333, -4.952381) "></path>
                        <path d="M10.1468076,4.94583259 C10.4066685,4.87548434 10.6002383,4.58717333 10.7752909,4.39625376 C11.0642757,4.08031556 11.2916981,3.70193543 11.5231423,3.34201835 C11.7665188,2.96390775 11.9575254,2.55026365 12.1288215,2.13441837 C12.2775786,1.77369268 12.4282802,1.35470284 12.3668947,0.959566709 C12.3495707,0.846722012 12.2459798,0.792635621 12.1461013,0.846227867 C11.7916652,1.03620407 11.5840417,1.41426974 11.3829588,1.7517257 C11.1531499,2.13756292 10.9542325,2.54514252 10.738654,2.93947005 C10.5297931,3.32157872 10.3043151,3.69344512 10.093598,4.07483504 C9.96216492,4.31292298 9.82498665,4.61807984 9.96092749,4.87916797 C9.99592916,4.94623689 10.0810469,4.96366672 10.1468076,4.94583259" id="Fill-15" fill="#FBF187" transform="translate(11.142857, 2.888889) rotate(-28.000000) translate(-11.142857, -2.888889) "></path>
                        <path d="M6.94136269,4.82719258 C6.9325672,4.83623352 6.92365286,4.84527447 6.91467909,4.85431542 C6.85875644,4.91103809 6.96305426,4.96086652 7.0345473,4.95116504 C7.7355713,4.85596674 7.84420743,3.96718777 7.95920247,3.59031643 C8.12209725,3.05628119 8.44889709,2.29213522 8.09701823,1.76974175 C8.02077087,1.65666796 7.81193751,1.60143148 7.67566691,1.70761103 C7.07709843,2.17373594 6.87515883,2.82096882 6.75618205,3.42229514 C6.68617474,3.77732784 6.35640345,4.73921877 6.95865652,4.94720189 C6.98866814,4.90604286 7.01850148,4.86492512 7.04839424,4.82380738 C7.03329929,4.82017449 7.01844205,4.81658288 7.00352538,4.81299127 C6.97713892,4.80659242 6.95728965,4.81113354 6.94136269,4.82719258" id="Fill-16" fill="#FBF187" transform="translate(7.428571, 3.301587) rotate(-28.000000) translate(-7.428571, -3.301587) "></path>
                        <path d="M4.74456663,17.9638731 C4.8683785,17.3668375 4.84043433,16.7540536 4.92411641,16.1501573 C4.98703782,15.6962216 5.11547572,15.2763165 5.26373404,14.8467051 C5.421959,14.3883255 5.57781453,13.9058946 5.76157663,13.4608077 C5.82468608,13.3080405 5.69361549,13.1457229 5.53787279,13.2289477 C5.04187309,13.4939416 4.78439554,13.8737352 4.58701865,14.41226 C4.4257849,14.8522794 4.290502,15.2958461 4.2150941,15.7605795 C4.09718698,16.4870326 4.09015392,17.2429164 4.23961577,17.9638731 C4.29351079,18.2236825 4.69067161,18.2236825 4.74456663,17.9638731" id="Fill-17" fill="#FBF187" transform="translate(4.952381, 15.682540) rotate(-28.000000) translate(-4.952381, -15.682540) "></path>
                        <path d="M4.77004502,12.4882613 C4.76425174,12.4859292 4.75889197,12.482738 4.75396571,12.4787693 C4.7793458,12.4991444 4.80476529,12.5195196 4.83018479,12.5398947 C4.71597441,12.4377736 4.55888587,12.334916 4.39951154,12.4027922 C4.46438052,12.4027922 4.52924949,12.4027922 4.59411847,12.4027922 C4.59021687,12.4018921 4.58635469,12.4010329 4.58245309,12.4001328 C4.45539502,12.3711248 4.32715465,12.3982507 4.23296459,12.496035 C4.14413429,12.5882958 4.10373897,12.7324355 4.14058738,12.8589004 C4.14169086,12.8626645 4.14275494,12.8664285 4.14385842,12.8701926 C4.14385842,12.8028483 4.14385842,12.735545 4.14385842,12.6681598 C4.09987678,12.818191 4.15438091,12.9805783 4.2623645,13.084786 C4.37752072,13.1959491 4.53192938,13.230235 4.68168765,13.1902621 C4.8059476,13.1571218 4.90632504,13.0494364 4.94006006,12.9220305 C4.98116477,12.7669668 4.91814807,12.561129 4.77004502,12.4882613" id="Fill-18" fill="#FEF9DB" transform="translate(4.539683, 12.793651) rotate(-28.000000) translate(-4.539683, -12.793651) "></path>
                        <path d="M16.6419183,17.2814763 C16.9178623,17.4437969 17.246012,17.1867454 17.4302318,17.035549 C17.7147053,16.802189 17.9718758,16.5397867 18.2357757,16.2905502 C18.4638859,16.0751437 18.7146272,15.8482611 18.8696582,15.5912096 C18.9820417,15.4048455 19.0825526,15.0151495 18.8068657,14.8825403 C18.5839846,14.7753123 18.3016542,15.0348632 18.1805269,15.1544826 C17.9336431,15.3982626 17.7237062,15.6645724 17.471722,15.9069443 C17.2307532,16.1387554 16.997971,16.3765509 16.7785616,16.6225839 C16.6239593,16.7960285 16.3384571,17.1029977 16.6419183,17.2814763" id="Fill-19" fill="#FBF187" transform="translate(17.746032, 16.095238) rotate(-28.000000) translate(-17.746032, -16.095238) "></path>
                    </g>
                    <path d="M30.5396825,199.746032 C13.672485,199.746032 0,198.083583 0,196.031746 C0,193.979909 13.672485,192.31746 30.5396825,192.31746 C47.4056509,192.31746 61.0793651,193.979909 61.0793651,196.031746 C61.0793651,198.083583 47.4056509,199.746032 30.5396825,199.746032" id="Fill-4" fill="#E7E5EA"></path>
                    <path d="M85.015873,38.9911242 C85.015873,38.9911242 86.5989529,32.3795174 86.9404993,32.3841604 C87.9289894,32.399637 87.2783061,35.8694924 87.2783061,35.8694924 C87.2783061,35.8694924 90.5491736,29.9821909 91.2434851,30.5826833 C91.6710413,30.9494789 90.0917009,34.4456445 90.0917009,34.4456445 C90.0917009,34.4456445 92.2082912,31.9554584 92.829058,32.4058276 C93.4348666,32.8484586 91.0415489,36.3446243 91.0415489,36.3446243 C91.0415489,36.3446243 92.7081456,34.854227 93.2541212,35.3340018 C93.6293236,35.6636536 87.1636263,42.9206349 87.1636263,42.9206349 L85.015873,38.9911242" id="Fill-190" fill="#F3D0A3"></path>
                    <polyline id="Fill-191" fill="#F3D0A3" points="51.0411689 188.190476 51.1746032 192.647025 48.7935667 193.142857 48.6984127 188.226105 51.0411689 188.190476"></polyline>
                    <path d="M48.9081005,193.79002 C48.9081005,193.79002 60.0902003,191.095729 61.7714469,192.996018 C63.4514454,194.896307 48.6984127,196.444444 48.6984127,196.444444 L48.9081005,193.79002" id="Fill-192" fill="#382E65"></path>
                    <polyline id="Fill-193" fill="#F3D0A3" points="13.2063492 172.220553 10.045524 174.984127 8.25396825 172.185697 11.7725989 169.206349 13.2063492 172.220553"></polyline>
                    <path d="M8.42953816,171.68254 C8.42953816,171.68254 16.0188701,181.942685 15.6709315,184.56986 C15.324249,187.198542 6.6031746,172.718948 6.6031746,172.718948 L8.42953816,171.68254" id="Fill-194" fill="#382E65"></path>
                    <path d="M55.8807846,72.6349206 C55.8807846,72.6349206 65.0513248,83.410128 65.2047761,123.368318 C65.3570095,163.326508 54.409601,189.84127 54.409601,189.84127 L46.6919764,189.84127 C46.6919764,189.84127 59.3504883,139.667563 45.1282349,106.393103 C45.1282349,106.393103 40.3688098,145.155942 15.1735727,174.807142 L9.07936508,166.563721 C9.07936508,166.563721 27.6603653,136.844304 27.8077272,99.6814663 C27.8369561,92.3202168 28.8063784,88.5946307 26.7944617,80.3543102 L55.8807846,72.6349206" id="Fill-195" fill="#2FA565"></path>
                    <path d="M21.4603175,33.3299534 L26.8549466,86.1126557 L60.7930924,86.6666667 L55.723072,46.9063181 C55.723072,46.9063181 72.4973797,67.0209412 79.8139373,58.6813733 C87.12927,50.3418053 88.3174603,42.0502104 88.3174603,42.0502104 L84.3327354,38.5899629 C84.3327354,38.5899629 78.2705148,53.170666 72.7607415,48.5853738 C66.5674525,43.4321429 52.7182979,22.3704396 39.6580037,24.9857429 C31.0062631,26.7189617 22.7955004,20.6047229 21.4603175,33.3299534" id="Fill-201" fill="#F6BE5C"></path>
                    <path d="M42.0609117,2.47619048 L45.1630403,12.6649 C45.8534827,14.9321508 44.9624716,17.4839679 43.1768028,18.3515857 L42.1216901,18.8650422 L42.6310129,26.3349067 L34.4538895,27.2380952 L33.015873,6.16317948 L42.0609117,2.47619048" id="Fill-202" fill="#F3D0A3"></path>
                    <path d="M37.0766907,22.2857143 C37.0766907,22.2857143 40.1122875,18.7460398 39.8553931,15.583699 C39.8553931,15.583699 35.376238,13.0860339 36.5923622,11.3446151 C37.807308,9.60161746 40.3974639,12.6802817 40.3974639,12.6802817 C40.3974639,12.6802817 38.6109869,8.08438855 39.0057559,6.79292835 C39.0057559,6.79292835 44.8094493,6.1077282 43.573292,1.63498158 C43.573292,1.63498158 41.8327732,-0.139592084 38.1631893,0.00881532251 C34.4924269,0.157222729 33.015873,8.65591494 33.015873,8.65591494 L37.0766907,22.2857143" id="Fill-203" fill="#ED6060"></path>
                    <path d="M38.5917632,0.472713879 C35.0413668,-0.727036317 31.0555792,0.396662444 28.2402115,3.39215776 C25.4248438,6.386101 23.8569457,11.1711332 24.1675901,15.816479 C24.3865088,19.0789304 25.448081,22.4826201 24.4439902,25.4998444 C23.9278803,27.0488104 22.9299046,28.2439044 21.950274,29.3784676 C19.089655,32.6936894 16.1299722,35.9561408 13.9114332,39.9884189 C11.6941171,44.019145 10.259527,48.9950818 10.8722548,53.8499571 C11.1327558,55.9126582 11.7711667,57.9241411 12.8364079,59.5181171 C13.3965462,60.356235 14.0692014,61.0748434 14.5608512,61.9765962 C16.3219847,65.2033499 15.3325701,69.7105615 16.4112644,73.3874156 C17.7957111,78.1072608 22.1532936,80.2165241 26.101168,80.724051 C31.5178767,81.4209305 37.3577467,79.9650887 41.3496494,75.2669725 C45.3415521,70.5688563 46.8275086,62.1969901 43.7528629,56.4946845 C42.2314392,53.6730211 39.6435513,51.191261 39.8967142,47.7875712 C40.0544824,45.6736517 41.3129591,43.9943119 42.0357577,42.0775053 C43.4850239,38.2438921 42.5249615,33.193456 39.8575779,30.6201237 C38.8730553,29.6687047 37.7038583,29.0385643 36.7927163,27.9769483 C35.8815743,26.9168844 35.2664006,25.180118 35.8118628,23.7723904 C36.232578,22.6874934 37.2158776,22.1023629 37.656161,21.0329866 C38.31414,19.4312503 37.5167379,17.4942668 36.5872507,16.1253409 C35.6565406,14.7579672 34.5118038,13.4014579 34.3784957,11.6041607 C34.276986,10.2367869 34.7943189,8.93304805 35.2981988,7.71777716 C36.2925055,5.31982884 37.2868121,2.92032844 38.2798958,0.522380123" id="Fill-204" fill="#ED6060"></path>
                </g>
            </g>
        </g>
    </g>
</svg>