<?xml version="1.0" encoding="UTF-8"?>
<svg width="1280px" height="1024px" viewBox="0 0 1280 1024" version="1.1" xmlns="http://www.w3.org/2000/svg" xmlns:xlink="http://www.w3.org/1999/xlink">
    <!-- Generator: Sketch 53.2 (72643) - https://sketchapp.com -->
    <title>assemble-sign-up</title>
    <desc>Created with Sketch.</desc>
    <defs>
        <rect id="path-1" x="0" y="0" width="529" height="620"></rect>
        <filter x="-0.2%" y="-0.1%" width="100.4%" height="100.3%" filterUnits="objectBoundingBox" id="filter-2">
            <feOffset dx="0" dy="0.5" in="SourceAlpha" result="shadowOffsetOuter1"></feOffset>
            <feGaussianBlur stdDeviation="0.25" in="shadowOffsetOuter1" result="shadowBlurOuter1"></feGaussianBlur>
            <feComposite in="shadowBlurOuter1" in2="SourceAlpha" operator="out" result="shadowBlurOuter1"></feComposite>
            <feColorMatrix values="0 0 0 0 0   0 0 0 0 0   0 0 0 0 0  0 0 0 0.5 0" type="matrix" in="shadowBlurOuter1"></feColorMatrix>
        </filter>
        <path d="M0,19.5 C0,8.73044738 8.73591211,0 19.5068352,0 L170.493165,0 C181.266492,0 190,8.72807945 190,19.5 L190,19.5 C190,30.2695526 181.264088,39 170.493165,39 L19.5068352,39 C8.7335076,39 0,30.2719205 0,19.5 L0,19.5 Z" id="path-3"></path>
        <filter x="-3.7%" y="-12.8%" width="107.4%" height="135.9%" filterUnits="objectBoundingBox" id="filter-4">
            <feOffset dx="0" dy="2" in="SourceAlpha" result="shadowOffsetOuter1"></feOffset>
            <feGaussianBlur stdDeviation="2" in="shadowOffsetOuter1" result="shadowBlurOuter1"></feGaussianBlur>
            <feColorMatrix values="0 0 0 0 0   0 0 0 0 0   0 0 0 0 0  0 0 0 0.5 0" type="matrix" in="shadowBlurOuter1"></feColorMatrix>
        </filter>
    </defs>
    <g id="assemble-sign-up" stroke="none" stroke-width="1" fill="none" fill-rule="evenodd">
        <rect fill="#FFFFFF" x="0" y="0" width="1280" height="1024"></rect>
        <g id="Group-16" transform="translate(102.000000, 976.000000)">
            <ellipse id="Oval-3" stroke="#2183E2" fill-rule="nonzero" cx="5.1382511" cy="6.5" rx="5.1382511" ry="5"></ellipse>
            <text id="C" font-family="OpenSans-Regular, Open Sans" font-size="8" font-weight="normal" fill="#2183E2">
                <tspan x="2.05530044" y="9.5">C</tspan>
            </text>
        </g>
        <g id="Group-29" transform="translate(376.000000, 164.000000)">
            <g id="Rectangle-14" fill-rule="nonzero">
                <use fill="black" fill-opacity="1" filter="url(#filter-2)" xlink:href="#path-1"></use>
                <rect stroke="#434446" stroke-width="0.5" stroke-linejoin="square" fill="#FFFFFF" fill-rule="evenodd" x="0.25" y="0.25" width="528.5" height="619.5"></rect>
            </g>
            <g id="Group-11" transform="translate(39.000000, 201.000000)">
                <text id="Email" font-family="OpenSans-Regular, Open Sans" font-size="14" font-weight="normal" letter-spacing="0.1435547" fill="#434446">
                    <tspan x="2" y="15">Email</tspan>
                </text>
                <rect id="Rectangle-4" stroke="#434446" fill-rule="nonzero" x="0.5" y="23.5" width="446" height="43" rx="4"></rect>
                <text id="name@domain.com" opacity="0.498660714" font-family="OpenSans-Regular, Open Sans" font-size="14" font-weight="normal" letter-spacing="0.1435547" fill="#C1C1C1">
                    <tspan x="10" y="49.211626">name@domain.com</tspan>
                </text>
            </g>
            <g id="Group-14" transform="translate(170.000000, 367.000000)">
                <g id="Group-8" transform="translate(16.000000, 23.000000)">
                    <g id="Overrides/Cell/Accessory/Checkmark" transform="translate(4.000000, 5.000000)" fill="#DADBDB">
                        <polygon id="Checkmark" points="8.5 7.5 7 9 11 13 20 4.5 18.5 3 11 10"></polygon>
                    </g>
                    <g id="Overrides/Cell/Accessory/Checkmark" transform="translate(0.000000, 28.000000)" fill="#DADBDB">
                        <polygon id="Checkmark" points="13.5 7.5 12 9 16 13 25 4.5 23.5 3 16 10"></polygon>
                    </g>
                    <g id="Overrides/Cell/Accessory/Checkmark" transform="translate(0.000000, 51.000000)" fill="#DADBDB">
                        <polygon id="Checkmark" points="13.5 6.5 12 8 16 12 25 3.5 23.5 2 16 9"></polygon>
                    </g>
                    <text id="1-uppercase-letter-1" font-family="OpenSans-Regular, Open Sans" font-size="13" font-weight="normal" line-spacing="23" letter-spacing="0.1184896" fill="#434446">
                        <tspan x="30" y="14">1 uppercase letter</tspan>
                        <tspan x="30" y="37">1 number</tspan>
                        <tspan x="30" y="60">8 characters</tspan>
                    </text>
                </g>
                <text id="Password-must-includ" font-family="OpenSans-SemiBold, Open Sans" font-size="14" font-weight="500" letter-spacing="0.1276042" fill="#434446">
                    <tspan x="0" y="15">Password must include:</tspan>
                </text>
            </g>
            <g id="Group-10" transform="translate(39.000000, 118.000000)">
                <text id="Full-name" font-family="OpenSans-Regular, Open Sans" font-size="14" font-weight="normal" letter-spacing="0.1435547" fill="#434446">
                    <tspan x="2" y="15">Full name</tspan>
                </text>
                <rect id="Rectangle-4" stroke="#434446" fill-rule="nonzero" x="0.5" y="23.5" width="446" height="43" rx="4"></rect>
                <text id="Sarah-Smith" opacity="0.498660714" font-family="OpenSans-Regular, Open Sans" font-size="14" font-weight="normal" letter-spacing="0.1435547" fill="#C1C1C1">
                    <tspan x="10" y="49">Sarah Smith</tspan>
                </text>
            </g>
            <g id="Group-12" transform="translate(41.000000, 284.000000)">
                <text id="Password" font-family="OpenSans-Regular, Open Sans" font-size="14" font-weight="normal" letter-spacing="0.1435547" fill="#434446">
                    <tspan x="0" y="15">Password</tspan>
                </text>
                <text id="********" opacity="0.495424107" font-family="OpenSans-Regular, Open Sans" font-size="14" font-weight="normal" letter-spacing="0.1435547" fill="#C1C1C1">
                    <tspan x="10" y="50.211626">********</tspan>
                </text>
                <path d="M4,23.5 C2.06700338,23.5 0.5,25.0670034 0.5,27 L0.5,63 C0.5,64.9329966 2.06700338,66.5 4,66.5 L443,66.5 C444.932997,66.5 446.5,64.9329966 446.5,63 L446.5,27 C446.5,25.0670034 444.932997,23.5 443,23.5 L4,23.5 Z" id="Rectangle-4" stroke="#434446" fill-rule="nonzero"></path>
            </g>
            <g id="Group-6" transform="translate(41.000000, 77.000000)">
                <path d="M0.416201117,17.25 L446.583799,17.25" id="Line-4" stroke="#434446" stroke-width="0.5" stroke-linecap="square" fill-rule="nonzero"></path>
                <polygon id="Rectangle" fill="#FFFFFF" fill-rule="nonzero" points="198 0 245.459259 0 245.459259 33 198 33"></polygon>
                <text id="or" font-family="OpenSans-Regular, Open Sans" font-size="16" font-weight="normal" fill="#2A2A2D">
                    <tspan x="213" y="21">or</tspan>
                </text>
            </g>
            <g id="Group-17" transform="translate(40.000000, 24.000000)">
                <g id="Group-20">
                    <g id="Group-22">
                        <g id="Group-26">
                            <rect id="Rectangle-4" fill="#4285F4" fill-rule="nonzero" x="0" y="0" width="447" height="36.25" rx="4"></rect>
                            <g id="Group-18" transform="translate(131.000000, 8.000000)" fill="#FFFFFF">
                                <g id="Group-21">
                                    <g id="Group-24">
                                        <text id="Sign-up-with-Google" font-family="Roboto-Medium, Roboto" font-size="17" font-weight="400" letter-spacing="0.1328125">
                                            <tspan x="29" y="16">Sign-up with Google</tspan>
                                        </text>
                                        <path d="M8.548875,12.115 L8.548875,8.953 L16.5586318,8.953 C16.6784358,9.4885 16.7725676,9.99 16.7725676,10.6955 C16.7725676,15.549 13.4950709,19 8.55743243,19 C3.83372973,19 -6.39488462e-15,15.192 -6.39488462e-15,10.5 C-6.39488462e-15,5.808 3.83372973,2 8.55743243,2 C10.8679392,2 12.8019189,2.8415 14.2823547,4.2185 L11.8520439,6.5645 C11.2359088,5.9865 10.1576723,5.3065 8.55743243,5.3065 C5.7249223,5.3065 3.41441554,7.644 3.41441554,10.5085 C3.41441554,13.373 5.7249223,15.7105 8.55743243,15.7105 C11.8349291,15.7105 13.041527,13.458 13.2640203,12.1235 L8.548875,12.1235 L8.548875,12.115 Z" id="Shape-Copy"></path>
                                    </g>
                                </g>
                            </g>
                        </g>
                    </g>
                </g>
            </g>
            <text id="Already-have-an-acco" font-family="OpenSans-Regular, Open Sans" font-size="13" font-weight="normal" letter-spacing="0.203125" fill="#434446">
                <tspan x="144" y="592">Already have an account? </tspan>
                <tspan x="305.998535" y="592" font-family="OpenSans-SemiBold, Open Sans" font-weight="500" letter-spacing="0.1886161" text-decoration="underline">Sign-in here</tspan>
            </text>
            <g id="Group-15" transform="translate(41.000000, 471.000000)">
                <g id="Group-7" transform="translate(19.000000, 0.000000)" fill="#434446" font-family="OpenSans-Regular, Open Sans" font-size="13" font-weight="normal">
                    <text id="I-agree-to-the-terms">
                        <tspan x="0" y="14">I agree to the terms and conditions set forth by Assemble, Inc.</tspan>
                    </text>
                </g>
                <path d="M0.5,2.5 L0.5,16.5 L14.5,16.5 L14.5,2.5 L0.5,2.5 Z" id="Rectangle-15" stroke="#434446" fill="#FFFFFF" fill-rule="nonzero"></path>
            </g>
            <g id="Group-9" transform="translate(168.000000, 521.000000)">
                <g id="Group-23">
                    <g id="Group-27">
                        <g id="Rectangle-path" fill-rule="nonzero">
                            <use fill="black" fill-opacity="1" filter="url(#filter-4)" xlink:href="#path-3"></use>
                            <use fill="#2FA565" xlink:href="#path-3"></use>
                        </g>
                        <text id="Start-Assembling!" font-family="OpenSans-Bold, Open Sans" font-size="16" font-weight="bold" fill="#FFFFFF">
                            <tspan x="24" y="25">Start Assembling!</tspan>
                        </text>
                    </g>
                </g>
            </g>
        </g>
        <g id="Group-47" transform="translate(0.000000, 923.000000)">
            <g id="Group-61">
                <rect id="Rectangle-4" fill="#E6F1FC" fill-rule="nonzero" x="0" y="0" width="1281" height="101"></rect>
                <g id="Group-50" transform="translate(90.000000, 43.000000)">
                    <text id="Terms-of-Service" font-family="OpenSans-SemiBold, Open Sans" font-size="15" font-weight="500" fill="#2183E2">
                        <tspan x="738" y="16">Terms of Service</tspan>
                    </text>
                    <text id="Privacy-Policy" font-family="OpenSans-SemiBold, Open Sans" font-size="15" font-weight="500" fill="#2183E2">
                        <tspan x="903" y="16">Privacy Policy</tspan>
                    </text>
                    <text id="Contact" font-family="OpenSans-SemiBold, Open Sans" font-size="15" font-weight="500" fill="#2183E2">
                        <tspan x="1043" y="16">Contact</tspan>
                    </text>
                    <g id="Group-49">
                        <text id="2018-Assemble---All" font-family="OpenSans-SemiBold, Open Sans" font-size="15" font-weight="500" fill="#2183E2">
                            <tspan x="13.0201181" y="16">2018 Assemble - All Rights Reserved</tspan>
                        </text>
                        <g id="Group-44" transform="translate(0.000000, 4.000000)">
                            <ellipse id="Oval-3" stroke="#2183E2" fill-rule="nonzero" cx="5.1382511" cy="6.5" rx="5.1382511" ry="5"></ellipse>
                            <text id="C" font-family="OpenSans-Regular, Open Sans" font-size="8" font-weight="normal" fill="#2183E2">
                                <tspan x="2.05530044" y="9.5">C</tspan>
                            </text>
                        </g>
                    </g>
                </g>
            </g>
        </g>
        <g id="Group-8" transform="translate(90.000000, 56.000000)">
            <ellipse id="Circle-3" fill="#2183E2" cx="40.6878052" cy="25.3333333" rx="17.1792955" ry="17.3333333"></ellipse>
            <ellipse id="Circle-3" fill="#FFFFFF" cx="40.6878052" cy="30.6666667" rx="17.1792955" ry="17.3333333"></ellipse>
            <ellipse id="Circle-1" stroke="#FFFFFF" stroke-width="3" fill="#2183E2" cx="41.1398919" cy="4.88888889" rx="4.97295397" ry="4.88888889"></ellipse>
            <ellipse id="Circle-2" fill="#2183E2" transform="translate(13.231347, 30.526137) scale(-1, 1) rotate(8.000000) translate(-13.231347, -30.526137) " cx="13.2313468" cy="30.5261373" rx="11.5240763" ry="11.2873258"></ellipse>
            <ellipse id="Circle-2" fill="#FFFFFF" transform="translate(15.792253, 34.706628) scale(-1, 1) rotate(8.000000) translate(-15.792253, -34.706628) " cx="15.7922527" cy="34.7066283" rx="11.5240763" ry="11.2873258"></ellipse>
            <ellipse id="Circle-1" stroke="#FFFFFF" stroke-width="3" fill="#2183E2" cx="4.69499404" cy="18.8207624" rx="4.69499404" ry="4.59854015"></ellipse>
            <ellipse id="Circle-2" fill="#2183E2" transform="translate(68.649150, 30.614252) rotate(5.000000) translate(-68.649150, -30.614252) " cx="68.6491499" cy="30.6142519" rx="11.5240763" ry="11.2873258"></ellipse>
            <ellipse id="Circle-2" fill="#FFFFFF" transform="translate(65.825373, 35.543195) rotate(5.000000) translate(-65.825373, -35.543195) " cx="65.8253731" cy="35.5431952" rx="11.5240763" ry="11.2873258"></ellipse>
            <ellipse id="Circle-1" stroke="#FFFFFF" stroke-width="3" fill="#2183E2" transform="translate(77.788886, 19.369883) scale(-1, 1) rotate(-3.000000) translate(-77.788886, -19.369883) " cx="77.7888862" cy="19.3698827" rx="4.69499404" ry="4.59854015"></ellipse>
            <ellipse id="Circle-3" fill="#2183E2" cx="40.6878052" cy="25.3333333" rx="17.1792955" ry="17.3333333"></ellipse>
            <ellipse id="Circle-3" fill="#FFFFFF" cx="40.6878052" cy="30.6666667" rx="17.1792955" ry="17.3333333"></ellipse>
            <ellipse id="Circle-1" stroke="#FFFFFF" stroke-width="3" fill="#2183E2" cx="41.1398919" cy="4.88888889" rx="4.97295397" ry="4.88888889"></ellipse>
            <ellipse id="Circle-2" fill="#2183E2" transform="translate(13.231347, 30.526137) scale(-1, 1) rotate(8.000000) translate(-13.231347, -30.526137) " cx="13.2313468" cy="30.5261373" rx="11.5240763" ry="11.2873258"></ellipse>
            <ellipse id="Circle-2" fill="#FFFFFF" transform="translate(15.792253, 34.706628) scale(-1, 1) rotate(8.000000) translate(-15.792253, -34.706628) " cx="15.7922527" cy="34.7066283" rx="11.5240763" ry="11.2873258"></ellipse>
            <ellipse id="Circle-1" stroke="#FFFFFF" stroke-width="3" fill="#2183E2" cx="4.69499404" cy="18.8207624" rx="4.69499404" ry="4.59854015"></ellipse>
            <ellipse id="Circle-2" fill="#2183E2" transform="translate(68.649150, 30.614252) rotate(5.000000) translate(-68.649150, -30.614252) " cx="68.6491499" cy="30.6142519" rx="11.5240763" ry="11.2873258"></ellipse>
            <ellipse id="Circle-2" fill="#FFFFFF" transform="translate(65.825373, 35.543195) rotate(5.000000) translate(-65.825373, -35.543195) " cx="65.8253731" cy="35.5431952" rx="11.5240763" ry="11.2873258"></ellipse>
            <ellipse id="Circle-1" stroke="#FFFFFF" stroke-width="3" fill="#2183E2" transform="translate(77.788886, 19.369883) scale(-1, 1) rotate(-3.000000) translate(-77.788886, -19.369883) " cx="77.7888862" cy="19.3698827" rx="4.69499404" ry="4.59854015"></ellipse>
            <path d="M12.301973,38.1922187 C26.905919,37.7402734 57.4714116,38.1748988 70.4444312,38.5763722 C79.093111,38.8440211 79.1842196,39.3185637 70.717757,40 L12.301973,40 C2.566009,39.0961093 2.566009,38.4935156 12.301973,38.1922187 Z" id="Rectangle-17" fill="#2183E2"></path>
            <text id="Assemble" font-family="Montserrat-Medium, Montserrat" font-size="32" font-weight="400" letter-spacing="1.454545" fill="#2183E2">
                <tspan x="93" y="38">A</tspan>
                <tspan x="117.718545" y="38" letter-spacing="0.72">s</tspan>
                <tspan x="134.470545" y="38" letter-spacing="0.32">s</tspan>
                <tspan x="150.822545" y="38" letter-spacing="-1.68">e</tspan>
                <tspan x="168.726545" y="38" letter-spacing="-3.18">m</tspan>
                <tspan x="199.370545" y="38" letter-spacing="-1.88">b</tspan>
                <tspan x="219.314545" y="38" letter-spacing="-2.08">l</tspan>
                <tspan x="226.162545" y="38" letter-spacing="2.115703">e</tspan>
            </text>
        </g>
        <g id="Group-41" transform="translate(787.000000, 71.000000)" font-family="OpenSans-SemiBold, Open Sans" font-size="17" font-weight="500">
            <text id="Pricing" fill="#434446">
                <tspan x="249" y="18">Pricing</tspan>
            </text>
            <text id="Sign-in" fill="#288F57">
                <tspan x="342" y="18">Sign-in</tspan>
            </text>
            <text id="Features" fill="#434446">
                <tspan x="0" y="18">Features</tspan>
            </text>
            <text id="Testimonials" fill="#434446">
                <tspan x="107" y="18">Testimonials</tspan>
            </text>
        </g>
        <g id="Group-25" transform="translate(118.000000, 542.000000)">
            <path d="M42.5119522,241.442188 C19.0485638,241.442188 0.0278459487,239.889706 0.0278459487,237.973592 C0.0278459487,236.057478 19.0485638,234.504996 42.5119522,234.504996 C65.9770507,234.504996 84.9994786,236.057478 84.9994786,237.973592 C84.9994786,239.889706 65.9770507,241.442188 42.5119522,241.442188" id="Fill-5" fill="#E7E5EA"></path>
            <polyline id="Fill-91" fill="#F3D0A3" points="72.0921354 230.05237 72.3007596 234.50648 68.5780137 235.002206 68.4292407 230.087991 72.0921354 230.05237"></polyline>
            <path d="M68.7165266,235.81888 C68.7165266,235.81888 84.0367289,233.414462 86.3401459,235.110913 C88.6418528,236.807363 68.4292407,238.19213 68.4292407,238.19213 L68.7165266,235.81888" id="Fill-92" fill="#382E65"></path>
            <polyline id="Fill-93" fill="#F3D0A3" points="18.6980066 214.938671 14.4212094 217.409879 11.99809 214.907503 16.7571171 212.241864 18.6980066 214.938671"></polyline>
            <path d="M12.7744459,215.210281 C12.7744459,215.210281 23.1064765,225.317743 22.6345069,227.907688 C22.1608273,230.496148 10.2880552,216.231417 10.2880552,216.231417 L12.7744459,215.210281" id="Fill-94" fill="#382E65"></path>
            <path d="M92.5150818,168.788681 C92.7288362,207.041196 77.3573327,232.424135 77.3573327,232.424135 L66.5208418,232.424135 C66.5208418,232.424135 84.2949442,184.390685 64.325157,152.538079 C64.325157,152.538079 57.6423407,189.646268 22.2651394,218.033246 L13.7081249,210.140224 C13.7081249,210.140224 39.7981269,181.689425 40.0050411,146.114423 C40.0460819,139.064431 41.4072697,135.497877 38.5822921,127.610791 L79.4230549,120.220916 C79.4230549,120.220916 92.2996174,130.534683 92.5150818,168.788681 Z" id="Fill-95" fill="#2F3EA5"></path>
            <path d="M56.3925204,46.0401581 L52.7262057,56.984714 C51.907099,59.4217849 53.5316321,61.9701715 56.3429294,62.6677497 L58.0033733,63.0788755 L58.0033733,70.9021403 L65.6626195,70.9021403 C68.3644745,70.9021403 70.5550292,68.9993846 70.5550292,66.6558188 L70.5550292,48.8319549 L56.3925204,46.0401581" id="Fill-41" fill="#F3D0A3" transform="translate(61.534488, 58.471149) scale(-1, 1) translate(-61.534488, -58.471149) "></path>
            <path d="M63.6638593,63.757159 C62.2547905,62.8636652 60.168548,61.1746356 60.2249792,59.0180801 C60.2249792,59.0180801 65.5756783,58.8859856 64.1443791,55.662284 C63.2551609,53.6600862 60.1941985,55.2496739 60.1941985,55.2496739 C60.1941985,55.2496739 61.4168735,51.2363732 60.6644581,49.9673747 C60.6644581,49.9673747 51.4747307,49.9569852 52.9624611,45.2564958 C52.9624611,45.2564958 55.5172532,43.2439086 61.3005911,42.9604247 C67.082219,42.6769409 70.2680139,51.1547417 70.2680139,51.1547417 L65.3944146,63.2807279 C65.1464595,63.9026114 64.2777618,64.1460217 63.6638593,63.757159" id="Fill-42" fill="#848374" transform="translate(61.533768, 53.449081) scale(-1, 1) translate(-61.533768, -53.449081) "></path>
            <path d="M51.8893404,48.9046811 C50.9847319,48.2115556 50.157075,47.6119352 49.7398265,46.6308732 C49.3242881,45.648327 49.8697892,43.0465089 50.8941001,42.492899 C52.0859944,41.8472681 53.6079254,42.4201727 54.9981838,42.5908567 C57.0844263,42.8476249 59.1518584,42.1426257 61.2449411,41.9452259 C63.3397338,41.7478261 65.8825557,42.3429939 66.5272388,44.0839708 C66.6589115,44.4416652 66.7683538,44.8913804 67.1838922,44.9952751 C67.3617359,45.0398013 67.5515497,45.0026961 67.7345235,44.987854 C69.3590566,44.8542752 70.4979398,46.5061997 70.4038879,47.9191665 C70.311546,49.3321333 69.4616587,50.6189423 69.085451,51.9962881 C68.2612142,55.0122005 69.7113238,58.384323 68.1893927,61.1879935 C66.9906583,63.395012 63.2114812,65.3452624 60.6053881,63.757159 L63.936536,50.9899946 L51.8893404,48.9046811" id="Fill-53" fill="#848374" transform="translate(60.004532, 53.122618) scale(-1, 1) translate(-60.004532, -53.122618) "></path>
            <path d="M6.07938935,124.921464 C6.07938935,124.921464 3.52321992,131.964974 5.22575206,136.957898 C6.92670339,141.949338 8.68772549,140.176219 8.68772549,140.176219 C8.68772549,140.176219 7.41359281,138.208725 7.77875987,135.402895 C8.14234612,132.597064 8.7857357,131.645961 8.7857357,131.645961 L10.2068837,137.52767 C10.2068837,137.52767 10.7380358,136.383674 11.1395615,134.555656 C11.5410872,132.730605 10.1642018,129.442545 10.519884,127.764389 C10.8739854,126.086232 11.4810164,124.155832 11.4810164,124.155832 L6.07938935,124.921464" id="Fill-87" fill="#F3D0A3"></path>
            <path d="M111.421922,41.3841935 L116.227035,32.1348846 L122.633283,33.9850422 C122.633283,33.9850422 120.962162,71.4451869 79.2199841,81.6351035 L78.5559739,83.8328127 C75.5977996,93.6219358 75.4885537,103.894673 78.2401849,113.729643 L82.4563941,121.298873 L37.5256015,130.092668 C37.5256015,130.092668 31.9079722,111.014304 37.134706,90.8400442 C37.134706,90.8400442 27.3469556,88.9617867 10.9395862,128.763098 L4.64087691,127.667201 C4.64087691,127.667201 13.7168219,74.2285575 46.2840506,66.8279272 L69.2427604,69.603903 C69.2427604,69.603903 102.878551,61.7388847 111.421922,41.3841935 Z" id="Fill-96" fill="#ED6060"></path>
            <path d="M121.698424,33.1703042 C121.698424,33.1703042 128.229183,30.0654432 128.132775,29.6732812 C127.851865,28.5292299 124.374555,29.9504483 124.374555,29.9504483 C124.374555,29.9504483 129.688589,25.0307326 128.870789,24.3392892 C128.370469,23.9161672 125.115894,26.4180423 125.115894,26.4180423 C125.115894,26.4180423 127.167041,23.4871479 126.525434,22.8546762 C125.898787,22.2384218 122.861959,25.6823701 122.861959,25.6823701 C122.861959,25.6823701 123.982278,23.4650335 123.33236,22.9254423 C122.88523,22.5539204 116.986105,31.4365356 116.986105,31.4365356 L121.698424,33.1703042" id="Fill-162" fill="#F3D0A3" transform="translate(122.971227, 27.975573) rotate(-13.000000) translate(-122.971227, -27.975573) "></path>
            <path d="M186.420408,233.020787 C169.421374,233.020787 155.641019,231.360023 155.641019,229.310265 C155.641019,227.260507 169.421374,225.599743 186.420408,225.599743 C203.42068,225.599743 217.202274,227.260507 217.202274,229.310265 C217.202274,231.360023 203.42068,233.020787 186.420408,233.020787" id="Fill-5" fill="#E7E5EA" transform="translate(186.421647, 229.310265) scale(-1, 1) translate(-186.421647, -229.310265) "></path>
            <path d="M208.020949,123.954965 C208.020949,123.954965 206.103822,130.998475 207.380721,135.991399 C208.656435,140.982839 209.977201,139.20972 209.977201,139.20972 C209.977201,139.20972 209.021602,137.242226 209.295477,134.436396 C209.568167,131.630565 210.050709,130.679462 210.050709,130.679462 L211.11657,136.561171 C211.11657,136.561171 211.514934,135.417175 211.816078,133.589157 C212.117223,131.764106 211.084559,128.476046 211.35132,126.79789 C211.616896,125.119733 212.07217,123.189333 212.07217,123.189333 L208.020949,123.954965" id="Fill-87" fill="#AA906F" transform="translate(209.507117, 131.352482) scale(-1, 1) translate(-209.507117, -131.352482) "></path>
            <polyline id="Fill-91" fill="#AA906F" transform="translate(165.901228, 224.857639) scale(-1, 1) translate(-165.901228, -224.857639) " points="167.426966 222.631325 167.611263 226.638022 164.322618 227.083952 164.191193 222.663368 167.426966 222.631325"></polyline>
            <path d="M154.148197,226.657518 C154.148197,226.657518 165.731583,224.721782 167.473164,226.087551 C169.213452,227.45332 153.930984,228.568161 153.930984,228.568161 L154.148197,226.657518" id="Fill-92" fill="#382E65" transform="translate(160.771124, 227.083952) scale(-1, 1) translate(-160.771124, -227.083952) "></path>
            <polyline id="Fill-93" fill="#AA906F" transform="translate(206.087048, 207.047133) scale(-1, 1) translate(-206.087048, -207.047133) " points="208.6521 207.144318 205.37737 209.273446 203.521995 207.117464 207.165967 204.820819 208.6521 207.144318"></polyline>
            <path d="M203.531652,206.305028 C203.531652,206.305028 210.677716,216.681623 210.351282,219.34053 C210.023666,221.997914 201.81196,207.353354 201.81196,207.353354 L203.531652,206.305028" id="Fill-94" fill="#382E65" transform="translate(206.087048, 212.983968) scale(-1, 1) translate(-206.087048, -212.983968) "></path>
            <path d="M208.65047,160.141692 C208.808167,198.597618 197.467894,224.115534 197.467894,224.115534 L189.473311,224.115534 C189.473311,224.115534 202.586093,175.826661 187.853452,143.804676 C187.853452,143.804676 182.923228,181.110192 156.823822,209.64812 L150.510914,201.713126 C150.510914,201.713126 169.758722,173.111037 169.911372,137.346861 C169.94165,130.25938 170.945861,126.673861 168.861744,118.744835 L198.991873,111.315663 C198.991873,111.315663 208.491512,121.684274 208.65047,160.141692 Z" id="Fill-95" fill="#956DD5" transform="translate(179.581507, 167.715598) scale(-1, 1) translate(-179.581507, -167.715598) "></path>
            <path d="M203.947995,40.4176945 L207.429961,31.1683856 L212.07217,33.0185431 C212.07217,33.0185431 210.861212,70.4786879 180.613258,80.6686045 L180.132091,82.8663137 C177.988486,92.6554367 177.909322,102.928174 179.903258,112.763144 L182.958482,120.332374 L150.399937,129.126169 C150.399937,129.126169 146.329191,110.047805 150.116679,89.8735451 C150.116679,89.8735451 143.024106,87.9952876 131.134708,127.796599 L126.570426,126.700702 C126.570426,126.700702 133.147198,73.2620584 156.746639,65.8614282 L173.383385,68.637404 C173.383385,68.637404 197.757146,60.7723856 203.947995,40.4176945 Z" id="Fill-96" fill="#F6BE5C" transform="translate(169.321298, 80.147277) scale(-1, 1) translate(-169.321298, -80.147277) "></path>
            <path d="M172.638902,46.0104739 L174.376457,56.0557854 C174.763229,58.2922778 173.614597,60.4924162 171.81628,60.965017 L170.754117,61.2413067 L170.350985,68.2736064 L162.481158,67.5770656 L163.615769,47.7365574 L172.638902,46.0104739" id="Fill-97" fill="#AA906F" transform="translate(168.466281, 57.142040) scale(-1, 1) translate(-168.466281, -57.142040) "></path>
            <path d="M165.330513,62.3367711 C165.330513,62.3367711 168.650186,60.6203634 168.772444,57.6723014 C168.772444,57.6723014 164.401105,54.5104207 165.886911,53.1528184 C167.372717,51.7937516 169.699358,55.1181931 169.699358,55.1181931 C169.699358,55.1181931 168.401928,50.5606328 168.974544,49.4534619 C168.974544,49.4534619 175.127354,49.9587185 174.390064,45.6193704 C174.390064,45.6193704 172.790733,43.6539957 168.934623,43.0740491 C165.07976,42.4941025 162.481158,49.9909377 162.481158,49.9909377 L165.330513,62.3367711" id="Fill-98" fill="#32375E" transform="translate(168.466281, 52.689414) scale(-1, 1) translate(-168.466281, -52.689414) "></path>
            <path d="M183.001577,44.3078767 C182.106698,43.350373 180.820878,43.0497439 179.602597,43.0422282 C176.55949,43.0226873 173.54106,44.6701347 171.617526,47.3968407 C169.693991,50.1250498 168.905615,53.8784041 169.532939,57.3236136 C169.675808,58.1112618 169.892709,58.8928975 170.269363,59.5708161 C171.248664,61.3355089 173.103362,62.1066225 174.824282,62.7634971 C176.327003,63.3376987 178.958388,64.4064352 180.289666,63.4173654 C180.289666,63.4173654 178.277813,56.191745 179.559736,51.8521639 C180.842958,47.514086 183.001577,44.3078767 183.001577,44.3078767" id="Fill-99" fill="#32375E" transform="translate(176.161437, 53.431518) scale(-1, 1) translate(-176.161437, -53.431518) "></path>
            <path d="M127.189487,32.6525944 C127.189487,32.6525944 132.78728,29.5477334 132.704646,29.1555714 C132.463865,28.0115201 129.483314,29.4327385 129.483314,29.4327385 C129.483314,29.4327385 134.0382,24.5130229 133.337229,23.8215795 C132.908383,23.3984574 130.118747,25.9003326 130.118747,25.9003326 C130.118747,25.9003326 131.876873,22.9694381 131.326925,22.3369664 C130.789799,21.720712 128.186803,25.1646604 128.186803,25.1646604 C128.186803,25.1646604 129.147076,22.9473237 128.590004,22.4077325 C128.20675,22.0362107 123.150356,30.9188258 123.150356,30.9188258 L127.189487,32.6525944" id="Fill-162" fill="#AA906F" transform="translate(128.280461, 27.457863) scale(-1, 1) rotate(-13.000000) translate(-128.280461, -27.457863) "></path>
            <path d="M117.767269,13.2941033 C115.689185,11.0718167 112.351766,9.86821222 109.609636,8.38802789 C106.886504,6.91749169 103.953484,4.86887155 100.74815,4.46364998 C99.8298845,4.34787239 98.7623446,5.16313959 99.4064873,6.01378328 C101.309061,8.52631779 104.740568,9.92851305 107.673589,11.3315123 C110.625608,12.7441597 113.647289,14.581325 117.047132,14.8386085 C118.012442,14.9109695 118.273899,13.8368107 117.767269,13.2941033" id="Fill-98" fill="#FBF187"></path>
            <path d="M115.942311,16.524888 C112.60739,15.9103132 108.983527,16.882646 105.660235,17.2740512 C101.980909,17.7073436 97.6413971,17.7705178 94.4218748,19.299058 C93.8708257,19.5606814 94.0273737,20.1374891 94.5927358,20.2988579 C98.0430547,21.2835509 102.319053,20.5350743 105.846304,19.9898538 C109.295728,19.4569934 113.508212,19.0463613 116.164162,17.1703632 C116.439686,16.9760339 116.302819,16.5914955 115.942311,16.524888" id="Fill-99" fill="#FBF187"></path>
            <path d="M123.146607,11.2030219 C122.919449,9.31336418 121.962019,7.53830399 121.371408,5.7239761 C120.779955,3.90964821 120.405565,1.91500947 119.307634,0.307438023 C118.92483,-0.252727699 118.128094,0.0109268397 118.058264,0.629593417 C117.828581,2.67071229 118.685052,4.76151683 119.410275,6.65197597 C120.069034,8.36693254 120.675631,10.2814331 121.934255,11.6814467 C122.314535,12.1029735 123.215596,11.7808181 123.146607,11.2030219" id="Fill-100" fill="#FBF187"></path>
            <path d="M133.779071,13.3495778 C136.347584,12.7796556 138.716542,9.7518933 140.669534,8.21302265 C142.776851,6.55323498 146.101905,4.76608137 147.056229,2.29695576 C147.236273,1.83021605 146.679289,1.37637415 146.187049,1.50696454 C143.379955,2.25020118 140.718315,5.08691454 138.562218,6.83376247 C136.728959,8.31781741 133.366654,10.6168531 133.411,13.0948459 C133.413661,13.2697726 133.593705,13.3914957 133.779071,13.3495778" id="Fill-101" fill="#FBF187"></path>
            <path d="M137.350884,14.7467316 C139.416365,14.9660833 141.356255,14.769957 143.400482,14.5318959 C145.550978,14.2815769 148.030907,14.1622237 149.921527,13.4009442 C150.989046,12.9712728 150.500209,11.9177393 149.304201,11.8790302 C147.222297,11.8119344 145.10658,12.391281 143.085539,12.6957928 C141.053872,13.001595 139.057949,13.2383658 137.177956,13.8622279 C136.649509,14.0377093 136.737423,14.6815712 137.350884,14.7467316" id="Fill-102" fill="#FBF187"></path>
            <path d="M135.177855,18.5982231 C136.306598,20.764701 139.047463,22.5832087 140.940477,24.0793951 C142.395781,25.2301762 144.742877,27.5308834 146.700514,26.4211406 C147.030521,26.2330486 147.139087,25.8662692 147.07188,25.5157341 C146.865087,24.4418997 146.122357,24.0759753 145.2185,23.5313634 C144.047537,22.8268733 142.881743,22.1454673 141.762478,21.3571908 C139.932363,20.0661957 137.933367,18.1040541 135.631076,17.8142214 C135.207151,17.7612137 135.015867,18.2878713 135.177855,18.5982231" id="Fill-103" fill="#FBF187"></path>
            <path d="M193.754542,43.4930968 C189.552922,42.3483535 184.832976,43.4205322 181.500057,46.2786882 C178.167138,49.1353632 176.311012,53.7010082 176.68021,58.1333713 C176.937925,61.2447628 178.194647,64.4953598 177.007421,67.3712867 C176.396435,68.8507156 175.213552,69.9910162 174.055284,71.0735612 C170.667347,74.2382655 167.163583,77.349657 164.538656,81.1970607 C161.912282,85.0444644 160.21397,89.7907804 160.939336,94.4245472 C161.249173,96.3926763 162.003495,98.3119355 163.264561,99.8313489 C163.927669,100.629559 164.723979,101.315221 165.307457,102.17711 C167.390894,105.254441 166.219594,109.556484 167.496586,113.064759 C169.135536,117.568206 174.295624,119.579281 178.967792,120.063539 C185.380258,120.728467 192.293676,119.340855 197.019413,114.858141 C201.746598,110.375427 203.505719,102.387399 199.865859,96.9480175 C198.063303,94.2557235 194.999682,91.8877487 195.299384,88.6401135 C195.486155,86.6201525 196.975978,85.019289 197.831649,83.1918462 C199.547335,79.5310372 198.410784,74.7136376 195.253053,72.2568082 C194.087545,71.3519723 192.703413,70.7477611 191.624775,69.7362997 C190.547585,68.7248383 189.817876,67.0677002 190.465059,65.724515 C190.961666,64.6908399 192.127175,64.1325369 192.648396,63.1092282 C193.427331,61.5824102 192.481894,59.7327539 191.381539,58.4280723 C190.281183,57.1219099 188.926009,55.8275947 188.766747,54.1127011 C188.646576,52.8080196 189.260459,51.5640553 189.856967,50.4045029 C191.03261,48.1164973 192.209701,45.8284916 193.385344,43.539005" id="Fill-149" fill="#32375E" transform="translate(181.291542, 81.631486) scale(-1, 1) translate(-181.291542, -81.631486) "></path>
        </g>
    </g>
</svg>