<?xml version="1.0" encoding="UTF-8"?>
<svg width="183px" height="87px" viewBox="0 0 183 87" version="1.1" xmlns="http://www.w3.org/2000/svg" xmlns:xlink="http://www.w3.org/1999/xlink">
    <!-- Generator: Sketch 52.5 (67469) - http://www.bohemiancoding.com/sketch -->
    <title>Group 5</title>
    <desc>Created with Sketch.</desc>
    <g id="Desktop" stroke="none" stroke-width="1" fill="none" fill-rule="evenodd">
        <g transform="translate(-977.000000, -771.000000)" id="Group-5">
            <g transform="translate(979.000000, 773.000000)">
                <path d="M66.6178644,85 C57.2212072,78.2070225 51.1061931,67.1491255 51.1061931,54.6618809 C51.1061931,34.0063019 67.8378509,17.2616466 88.4773968,17.2616466 C109.116943,17.2616466 125.848601,34.0063019 125.848601,54.6618809 C125.848601,67.1491255 119.733586,78.2070225 110.336929,85 L66.6178644,85 Z" id="Combined-Shape" fill="#FFFFFF"></path>
                <ellipse id="Circle-1" stroke="#2183E2" stroke-width="3" fill="#FFFFFF" cx="89.4608495" cy="10.548784" rx="10.81798" ry="10.548784"></ellipse>
                <path d="M12.8773804,85 C8.16365448,81.2627398 4.83860041,75.8320759 3.94518321,69.4750823 C2.06934874,56.1278265 11.6234683,43.7512784 25.2849064,41.8312885 C38.9463446,39.9112986 51.5417927,49.1749279 53.4176272,62.5221837 C54.6593029,71.3571656 50.8928919,79.7668275 44.2421688,85 L12.8773804,85 Z" id="Combined-Shape" fill="#FFFFFF"></path>
                <path d="M11.36568,85 C10.4583973,82.9826066 9.81895403,80.8083957 9.49642156,78.5134579 C7.62058709,65.1662022 17.1747066,52.7896541 30.8361448,50.8696642 C44.497583,48.9496743 57.0930311,58.2133036 58.9688655,71.5605594 C59.6356598,76.3050468 58.8582148,80.9268798 56.9654273,85.0000009 L11.36568,85 Z" id="Combined-Shape" fill="#2183E2"></path>
                <circle id="Circle-1" stroke="#2183E2" stroke-width="3" fill="#FFFFFF" cx="10" cy="41" r="10"></circle>
                <path d="M132.968758,85 C126.830622,80.0462931 123.197046,72.3299254 123.924771,64.0119822 C125.099457,50.5852583 137.193135,40.6754948 150.936756,41.8779059 C164.680378,43.0803169 174.869513,54.939574 173.694827,68.3662978 C173.103525,75.1249062 169.745556,80.9923828 164.803135,85 L132.968758,85 Z" id="Combined-Shape" fill="#FFFFFF"></path>
                <path d="M55.8085209,85.0000091 C52.7478931,79.5411243 51,73.2274417 51,66.5 C51,45.7893219 67.5654643,29 88,29 C108.434536,29 125,45.7893219 125,66.5 C125,73.2274417 123.252107,79.5411243 120.191479,85.0000091 L55.8085159,85 Z" id="Combined-Shape" fill="#2183E2"></path>
                <path d="M119.175499,85 C117.995426,81.7883566 117.487282,78.2853164 117.803709,74.6685392 C118.978395,61.2418153 131.072073,51.3320518 144.815694,52.5344629 C158.559316,53.7368739 168.748451,65.596131 167.573765,79.0228548 C167.391189,81.1097009 166.944845,83.1115883 166.269534,85 L119.175499,85 Z" id="Combined-Shape" fill="#2183E2"></path>
                <ellipse id="Circle-1" stroke="#2183E2" stroke-width="3" fill="#FFFFFF" transform="translate(168.621876, 41.878400) scale(-1, 1) rotate(-3.000000) translate(-168.621876, -41.878400) " cx="168.621876" cy="41.8783998" rx="10.1772" ry="9.9422843"></ellipse>
                <path d="M26.8209415,81.3844374 C58.4628245,80.4805467 124.688058,81.3497977 152.796268,82.1527444 C171.535074,82.6880423 171.732476,83.6371275 153.388473,85 L26.8209415,85 C5.72635283,83.1922187 5.72635283,81.9870311 26.8209415,81.3844374 Z" id="Rectangle-17" fill="#FFFFFF"></path>
            </g>
        </g>
    </g>
</svg>