<?xml version="1.0" encoding="UTF-8"?>
<svg width="57px" height="71px" viewBox="0 0 57 71" version="1.1" xmlns="http://www.w3.org/2000/svg" xmlns:xlink="http://www.w3.org/1999/xlink">
    <!-- Generator: Sketch 52.4 (67378) - http://www.bohemiancoding.com/sketch -->
    <title>Group 38</title>
    <desc>Created with Sketch.</desc>
    <g id="Desktop" stroke="none" stroke-width="1" fill="none" fill-rule="evenodd">
        <g id="Assemble-case-study" transform="translate(-556.000000, -6844.000000)" fill="#333333">
            <g id="Group-38" transform="translate(556.351064, 6844.000000)">
                <path d="M52.3272415,53.9637913 C48.3566108,51.3368832 44.7405006,49.2779553 42.4006646,48.0709975 C40.2735409,50.6979056 37.3664719,52.9698261 33.6794576,54.2477813 C31.9068546,54.886759 30.0633474,55.170749 28.1489362,55.170749 C26.2345249,55.170749 24.3201136,54.8157614 22.5475106,54.1767838 C18.8604963,52.827831 16.0243314,50.5559105 13.8972078,48 C11.5573718,49.2069578 8.01216571,51.2658857 3.97063079,53.8927938 C1.48898655,55.5257366 0,58.3656372 0,61.3475328 C0,66.2463614 3.97063079,70.2222222 8.86301517,70.2222222 L47.4348572,70.2222222 C52.3272415,70.2222222 56.2978723,66.2463614 56.2978723,61.3475328 C56.2978723,58.4366347 54.8088858,55.6677316 52.3272415,53.9637913 Z" id="Path-Copy"></path>
                <g id="noun_Man_542862" transform="translate(9.047872, 0.000000)" fill-rule="nonzero">
                    <g id="Group">
                        <path d="M1.08091915,29.8818475 C1.51108085,31.2781955 2.29971064,34.0010741 4.02035745,35.6068743 C5.31084255,40.424275 9.18229787,45.9398496 15.3479489,48.0343716 C16.8535149,48.5230934 18.3590809,48.8023631 19.9363404,48.8023631 C21.5136,48.8023631 23.0908596,48.5230934 24.5964255,48.0343716 C30.7620766,45.8700322 34.6335319,40.424275 35.924017,35.6766917 C37.6446638,34.0708915 38.4332936,31.3480129 38.8634553,29.9516649 C39.5086979,27.7175081 40.225634,24.4360902 38.4332936,22.132116 C38.3616,22.0622986 38.2899064,21.9226638 38.2182128,21.8528464 C39.2219234,15.8485499 38.5049872,11.3104189 36.1390979,8.37808808 C34.992,6.98174006 33.7732085,6.28356606 32.7694979,5.86466165 C31.9808681,4.88721805 30.6186894,3.56068743 28.5395745,2.44360902 C26.1019915,1.04726101 23.377634,0.349087003 20.3665021,0.349087003 C19.8646468,0.349087003 19.3627915,0.349087003 18.7892426,0.418904404 C17.4270638,0.488721805 16.1365787,0.767991407 14.8460936,1.18689581 C13.4122213,1.67561762 11.9783489,2.37379162 10.6878638,3.28141783 C9.18229787,4.18904404 7.82011915,5.30612245 6.60132766,6.56283566 C4.2354383,8.93662728 2.65817872,11.5896885 1.94124255,14.5220193 C1.36769362,16.6863588 1.36769362,19.0601504 1.86954894,21.8528464 C1.79785532,21.9226638 1.7261617,21.9924812 1.65446809,22.132116 C-0.281259574,24.3662728 0.435676596,27.6476907 1.08091915,29.8818475 Z M23.377634,44.8227712 C22.2305362,45.2416756 21.0834383,45.3813104 19.9363404,45.3813104 C18.7892426,45.3813104 17.6421447,45.1718582 16.4950468,44.8227712 C13.268834,43.7056928 10.8312511,41.4017186 9.25399149,38.8882922 C10.1860085,39.726101 11.6915745,40.4940924 13.9140766,40.4940924 C17.0685957,40.4940924 19.1477106,39.3071966 20.008034,38.1203008 C20.8683574,39.3071966 22.8757787,40.4940924 26.1019915,40.4940924 C28.2528,40.4940924 29.6866723,39.7959184 30.690383,39.027927 C28.8980426,41.471536 26.4604596,43.7755102 23.377634,44.8227712 Z M5.5259234,23.5982814 C5.59761702,23.5982814 5.66931064,23.5982814 5.74100426,23.5982814 C5.74100426,23.5982814 6.81640851,9.70461869 18.3590809,14.5220193 C24.3813447,17.0354458 28.8980426,16.895811 31.7657872,16.2674544 C35.4221617,18.7110634 34.3467574,22.83029 34.1316766,23.528464 C34.1316766,23.528464 34.1316766,23.5982814 34.1316766,23.5982814 C34.2033702,23.5982814 34.2750638,23.5982814 34.3467574,23.5982814 C35.5655489,23.5982814 36.7843404,24.5059076 35.4221617,28.9742213 C34.4184511,32.4650913 33.486434,33.4425349 32.7694979,33.5123523 C32.6261106,34.5596133 32.2676426,35.6766917 31.7657872,36.8635875 C31.3356255,37.0730397 30.7620766,37.3523093 29.758366,37.3523093 C27.7509447,37.3523093 26.1736851,34.9087003 23.377634,34.9087003 C22.5890043,34.9087003 21.5136,34.9785177 19.8646468,36.1654135 C18.2873872,35.0483351 17.1402894,34.9087003 16.3516596,34.9087003 C13.5556085,34.9087003 11.9783489,37.3523093 9.97092766,37.3523093 C8.96721702,37.3523093 8.39366809,37.1428571 7.96350638,36.8635875 C7.46165106,35.7465091 7.10318298,34.6294307 6.95979574,33.5821697 C6.24285957,33.5123523 5.31084255,32.5349087 4.30713191,29.0440387 C3.08834043,24.5059076 4.30713191,23.5982814 5.5259234,23.5982814 Z" id="Shape"></path>
                    </g>
                </g>
            </g>
        </g>
    </g>
</svg>