<?xml version="1.0" encoding="UTF-8"?>
<svg width="58px" height="71px" viewBox="0 0 58 71" version="1.1" xmlns="http://www.w3.org/2000/svg" xmlns:xlink="http://www.w3.org/1999/xlink">
    <!-- Generator: Sketch 52.4 (67378) - http://www.bohemiancoding.com/sketch -->
    <title>Group 17</title>
    <desc>Created with Sketch.</desc>
    <g id="Desktop" stroke="none" stroke-width="1" fill="none" fill-rule="evenodd">
        <g id="Assemble-case-study" transform="translate(-1163.000000, -6844.000000)" fill="#333333">
            <g id="Group-17" transform="translate(1163.000000, 6844.000000)">
                <path d="M53.0525702,53.947481 C49.0519254,51.3277572 45.4084811,49.2744602 43.0509582,48.0708033 C40.9077557,50.6905271 37.9787122,52.9562342 34.2638277,54.2306944 C32.4778256,54.8679245 30.6203834,55.1511379 28.6915011,55.1511379 C26.7626188,55.1511379 24.8337365,54.7971212 23.0477344,54.1598911 C19.3328499,52.8146275 16.4752465,50.5489204 14.332044,48 C11.9745211,49.2036569 8.40251687,51.2569539 4.33043201,53.8766777 C1.83002903,55.5051546 0.329787234,58.3372885 0.329787234,61.311029 C0.329787234,66.1964598 4.33043201,70.1614472 9.2597979,70.1614472 L48.1232043,70.1614472 C53.0525702,70.1614472 57.053215,66.1964598 57.053215,61.311029 C57.053215,58.4080918 55.5529732,55.6467613 53.0525702,53.947481 Z" id="Path"></path>
                <path d="M10.0772896,30.2330286 C10.5059301,31.6490955 11.2917711,34.410426 13.0063331,36.1097063 C14.2922547,40.9243338 18.1500193,46.5177981 24.3653067,48.7835052 C25.8655485,49.3499319 27.4372303,49.562342 29.0089122,49.562342 C30.5805941,49.562342 32.152276,49.2791286 33.5810777,48.7835052 C39.7963651,46.6594048 43.6541297,40.9951371 44.9400512,36.1097063 C46.6546133,34.4812293 47.5118943,31.7198989 47.8690947,30.2330286 C48.5120555,27.8965182 49.2264564,24.5687609 47.4404542,22.2322505 C47.3690141,22.1614472 47.2975741,22.0906438 47.226134,21.9490372 C47.7262146,19.0461 47.7262146,16.7095896 47.1546939,14.4438825 C46.440293,11.470142 44.8686112,8.70881152 42.5110883,6.30149776 C41.2966069,5.02703754 39.9392453,3.89418401 38.4390035,2.90293717 C37.0816419,1.98249368 35.6528402,1.27446022 34.2240384,0.778836802 C34.2240384,0.778836802 34.2240384,0.778836802 34.2240384,0.778836802 C32.9381169,0.354016728 31.5807553,0.0708033457 30.2233937,2.7000624e-13 C29.651873,0.0708033457 29.1517924,0.0708033457 28.6517118,0.0708033457 C25.6512282,0.0708033457 22.936505,0.778836802 20.436102,2.19490372 C18.3643395,3.32775725 17.0069779,4.67302081 16.221137,5.735071 C15.2209758,6.15989107 13.9350542,6.86792453 12.7920129,8.28399144 C10.43449,11.257732 9.79152928,15.8599494 10.7202504,22.0198405 C10.6488103,22.0906438 10.5773702,22.1614472 10.5059301,22.3030539 C8.719928,24.5687609 9.43432885,27.9673215 10.0772896,30.2330286 Z M14.5065749,23.7899241 C14.578015,23.7899241 14.6494551,23.7899241 14.7208952,23.7899241 C14.7208952,23.7899241 14.7208952,23.7191208 14.7208952,23.7191208 C14.5065749,23.0110873 13.4349736,18.8336899 17.1498581,16.2847695 C20.0789016,16.992803 24.5796269,17.0636063 30.5805941,14.5146859 C42.1538879,9.62925501 43.2254892,23.7899241 43.2254892,23.7899241 C43.2969293,23.7899241 43.3683694,23.7899241 43.4398094,23.7899241 C44.6542909,23.7899241 45.8687723,24.7103676 44.5828508,29.3125851 C43.5826896,32.9235557 42.5825284,33.9148026 41.8681276,33.9148026 C41.2251668,38.1630033 37.8674828,43.5440576 32.4380363,45.4557479 C31.294995,45.8097646 30.1519536,46.0221747 29.0089122,46.0221747 C27.8658709,46.0221747 26.6513894,45.8097646 25.5797881,45.4557479 C20.2217817,43.5440576 16.7926576,38.1630033 16.1496969,33.9148026 C15.435296,33.8439992 14.5065749,32.8527524 13.4349736,29.3125851 C12.1490521,24.7103676 13.3635335,23.7899241 14.5065749,23.7899241 Z" id="Shape" fill-rule="nonzero"></path>
            </g>
        </g>
    </g>
</svg>