<?xml version="1.0" encoding="UTF-8"?>
<svg width="55px" height="69px" viewBox="0 0 55 69" version="1.1" xmlns="http://www.w3.org/2000/svg" xmlns:xlink="http://www.w3.org/1999/xlink">
    <!-- Generator: Sketch 52.4 (67378) - http://www.bohemiancoding.com/sketch -->
    <title>Group 47</title>
    <desc>Created with Sketch.</desc>
    <g id="Desktop" stroke="none" stroke-width="1" fill="none" fill-rule="evenodd">
        <g id="Assemble-case-study" transform="translate(-760.000000, -6844.000000)" fill="#333333">
            <g id="Group-47" transform="translate(760.000000, 6844.000000)">
                <path d="M50.2989635,53.628866 C46.5088789,51.1494845 43.0571948,49.2061856 40.8237521,48.0670103 C38.7933497,50.5463918 36.0184664,52.6907216 32.4991022,53.8969072 C30.8071002,54.5 29.0474181,54.7680412 27.2200559,54.7680412 C25.3926937,54.7680412 23.5653315,54.4329897 21.8733295,53.8298969 C18.3539653,52.556701 15.6467621,50.4123711 13.6163597,48 C11.382917,49.1391753 7.99891296,51.0824742 4.14114835,53.5618557 C1.77234553,55.1030928 0.35106383,57.7835052 0.35106383,60.5979381 C0.35106383,65.2216495 4.14114835,68.9742268 8.81107393,68.9742268 L45.6290379,68.9742268 C50.2989635,68.9742268 54.089048,65.2216495 54.089048,60.5979381 C54.089048,57.8505155 52.6677663,55.2371134 50.2989635,53.628866 Z" id="Path-Copy-5"></path>
                <path d="M24.2458298,46.3004599 C17.7778175,44.6705401 12.90469,37.6272764 12.90469,29.1789283 C12.90469,22.7814064 15.6391729,28.223043 19.8048107,25.1763872 C20.873484,28.0102248 22.4408628,24.5178368 25.1372251,24.1484943 C25.7888814,24.0592317 26.9363307,23.4538274 27.6625523,23.970394 C27.9239584,24.1560006 28.4117884,25.1435411 28.7549159,25.1763872 C30.0652301,25.3018178 31.6226297,23.726053 32.435897,24.6343205 C33.4395284,25.7551892 35.4799124,24.7826361 36.8849399,25.1763872 C38.6102073,25.6598838 39.7299943,27.3200988 41.1073717,26.6414746 C41.2091603,27.4778257 41.3108009,28.3085332 41.3108009,29.1789283 C41.3108009,37.6272764 36.4469941,44.6705401 29.9742475,46.3004599 C39.0639071,44.5908009 50.4911565,69.541183 50.4911565,57.8783264 C50.4911565,50.4288132 50.9304152,29.3468916 45.2536861,15.3366685 C41.1240627,5.14471776 31.5118659,0.050459927 27.1077455,0.050459927 C19.439519,0.050459927 13.5932604,-1.58636929 6.38171552,13.7849445 C6.32241635,13.9113399 6.01974047,14.8034716 5.96469612,14.9612626 C3.58833512,21.7733786 4.57572642,56.8091107 4.57572642,60.1602505 C4.57572642,71.8231072 15.1609046,44.5908009 24.2458298,46.3004599 Z" id="Path-Copy-4"></path>
            </g>
        </g>
    </g>
</svg>