<?xml version="1.0" encoding="UTF-8"?>
<svg width="56px" height="70px" viewBox="0 0 56 70" version="1.1" xmlns="http://www.w3.org/2000/svg" xmlns:xlink="http://www.w3.org/1999/xlink">
    <!-- Generator: Sketch 52.4 (67378) - http://www.bohemiancoding.com/sketch -->
    <title>Group 16</title>
    <desc>Created with Sketch.</desc>
    <g id="Desktop" stroke="none" stroke-width="1" fill="none" fill-rule="evenodd">
        <g id="Assemble-case-study" transform="translate(-974.000000, -6834.000000)" fill="#333333">
            <g id="Group-16" transform="translate(974.000000, 6834.355576)">
                <path d="M51.2345629,53.731209 C47.3742916,51.2067479 43.8586874,49.2281162 41.5838847,48.0682287 C39.5158822,50.5926898 36.6896122,52.7760075 33.1050746,54.0041237 C31.3817392,54.6181818 29.5894704,54.8910965 27.7282681,54.8910965 C25.8670659,54.8910965 24.0058637,54.5499531 22.2825283,53.935895 C18.6979907,52.6395501 15.9406541,50.4562324 13.8726516,48 C11.5978489,49.1598875 8.15117809,51.1385192 4.2219734,53.6629803 C1.80930386,55.2322399 0.361702128,57.9613871 0.361702128,60.8269916 C0.361702128,65.5347704 4.2219734,69.3555764 8.97837908,69.3555764 L46.4781572,69.3555764 C51.2345629,69.3555764 55.0948341,65.5347704 55.0948341,60.8269916 C55.0948341,58.0296157 53.6472324,55.3686973 51.2345629,53.731209 Z" id="Path-Copy-2"></path>
                <path d="M24.7774412,47.0909091 C18.1896509,45.4313543 13.2262803,38.2600313 13.2262803,29.6580769 C13.2262803,23.1442364 16.1035223,17.5110554 20.3463016,14.4090059 C21.6978248,17.9917016 24.4572286,21.6526205 28.2574363,24.354842 C33.239643,27.8911969 38.5230755,28.762959 41.9512338,27.0744876 C42.0549074,27.9260452 42.1584302,28.7718565 42.1584302,29.6580769 C42.1584302,38.2600313 37.204553,45.4313543 30.6119407,47.0909091 C39.8699273,45.3501653 46.9804552,35.6013701 46.9804552,23.7264615 C46.9804552,10.6237085 38.3442085,4.08562073e-13 27.6923553,4.08562073e-13 C17.0453241,4.08562073e-13 8.40425532,10.6237085 8.40425532,23.7264615 C8.40425532,35.6013701 15.5242766,45.3501653 24.7774412,47.0909091 Z" id="Path-Copy-3"></path>
            </g>
        </g>
    </g>
</svg>