<?xml version="1.0" encoding="UTF-8"?>
<svg width="123px" height="123px" viewBox="0 0 123 123" version="1.1" xmlns="http://www.w3.org/2000/svg" xmlns:xlink="http://www.w3.org/1999/xlink">
    <!-- Generator: Sketch 52.5 (67469) - http://www.bohemiancoding.com/sketch -->
    <title>noun_Golden Ratio_1414520</title>
    <desc>Created with Sketch.</desc>
    <g id="Desktop" stroke="none" stroke-width="1" fill="none" fill-rule="evenodd">
        <g id="Assemble-case-study" transform="translate(-812.000000, -9402.000000)" stroke="#333333">
            <g id="Group-127" transform="translate(813.000000, 9403.000000)">
                <g id="noun_Golden-Ratio_1414520">
                    <path d="M121,60.5184645 C121,93.3032317 94.7311342,119.987871 61.9295075,121 C62.5497063,120.972645 63.1699051,120.917936 63.7763217,120.863226 C64.3965206,120.808516 65.0029372,120.725084 65.5955716,120.644387 C66.2019883,120.548645 66.7946227,120.452903 67.3872571,120.331174 C67.9798915,120.20671 68.572526,120.083613 69.137596,119.934529 C69.1513782,119.948207 69.1513782,119.948207 69.1513782,119.934529 C69.6061907,119.82511 70.047221,119.700645 70.4882512,119.563871 C70.7363308,119.509162 70.9844103,119.427097 71.2324898,119.345033 C71.7010845,119.221936 72.155897,119.071484 72.5969272,118.908723 C72.9966109,118.770581 73.3825124,118.621497 73.7684139,118.457368 C73.8235427,118.442323 73.8924537,118.416336 73.9475825,118.387613 C74.0854044,118.347949 74.2094442,118.293239 74.3472662,118.23853 C74.7745142,118.060723 75.2017623,117.882917 75.6152282,117.677756 C75.6979214,117.649033 75.7806146,117.609368 75.8633077,117.568336 C76.1113873,117.458917 76.373249,117.33582 76.6075463,117.212723 C76.6626751,117.184001 76.7178039,117.158014 76.7729327,117.129291 C77.1037054,116.980207 77.4206959,116.816078 77.7376864,116.638272 C77.779033,116.623227 77.8065974,116.59724 77.847944,116.583562 C78.2338455,116.378401 78.6059648,116.17324 78.978084,115.939356 C79.4191143,115.693162 79.8463624,115.434659 80.2598283,115.161111 C80.3149571,115.120079 80.3700859,115.092724 80.4252146,115.051692 C80.4665612,115.038014 80.4941256,115.022969 80.52169,114.996982 C80.8938093,114.764466 81.2659286,114.518272 81.6242657,114.258401 C81.7896521,114.148982 81.9412562,114.039563 82.0928604,113.916466 C82.3960687,113.711305 82.699277,113.478789 82.9887031,113.246273 C83.1816539,113.109498 83.3608224,112.972724 83.539991,112.822273 C83.7880705,112.617111 84.03615,112.41195 84.2842296,112.193112 C84.6150023,111.933241 84.9319928,111.658325 85.2352011,111.371099 C85.648667,111.001809 86.0483507,110.632518 86.4342521,110.235873 C86.5307275,110.153809 86.6272029,110.073112 86.6961139,109.97737 C87.0131044,109.676467 87.3163127,109.348209 87.6057388,109.033628 C87.9365115,108.706738 88.2397198,108.364803 88.5153638,108.007822 C88.5567103,107.953112 88.6118391,107.913448 88.6531857,107.858738 C88.8874831,107.598867 89.1079982,107.338996 89.3285133,107.065448 C89.4249887,106.942351 89.5352463,106.805577 89.6179394,106.68248 C89.93493,106.299513 90.2243561,105.902868 90.5137822,105.492545 C90.8583371,105.041191 91.1753276,104.576158 91.4785359,104.097449 C91.5198825,104.056417 91.5474469,104.014017 91.5612291,103.959307 C91.8230908,103.577707 92.0711704,103.181062 92.3054677,102.784417 C92.5535472,102.372727 92.8016268,101.950094 93.0221419,101.526094 C93.2288748,101.143127 93.4356078,100.758791 93.6147763,100.375824 C93.6423407,100.336159 93.6699051,100.293759 93.6836873,100.252727 C94.0420244,99.5415014 94.3727971,98.8302757 94.6760054,98.0916952 C94.8276096,97.7360824 94.9792137,97.3804696 95.1032535,97.0111793 C95.1721645,96.8470503 95.2410755,96.6842891 95.2962042,96.5051149 C95.3788974,96.287644 95.4615906,96.0551279 95.5305016,95.8362892 C95.6545413,95.5217087 95.7510167,95.1920829 95.8474921,94.8788701 C95.9853141,94.4685476 96.1093538,94.0568574 96.2058292,93.6479026 C96.2885224,93.3893994 96.3574333,93.1144834 96.4125621,92.8546125 C96.4401265,92.8149479 96.4539087,92.7602383 96.4539087,92.7178383 C96.5917307,92.1707416 96.7157704,91.623645 96.826028,91.0765483 C97.0603254,89.9016582 97.2394939,88.711723 97.3635337,87.4930652 C97.4875734,86.2894526 97.5427022,85.0448077 97.5427022,83.8001628 C97.5427022,63.2306962 80.7422052,46.5579256 60,46.5579256 C72.9690465,46.5579256 83.47108,36.1357342 83.47108,23.2652854 C83.47108,10.6683848 73.3962946,0.410322493 60.7855852,0 C94.1247176,0.406219268 121,27.3507297 121,60.5184645 Z" id="Path"></path>
                    <path d="M61,121 C27.3163127,121 0,93.9058976 0,60.4931646 C0,27.3415433 26.8890646,0.41012315 60.2144148,0 C47.6174876,0.41012315 37.5427022,10.6632019 37.5427022,23.2539826 C37.5427022,36.1181787 48.0447357,46.5353067 61,46.5353067 C40.271577,46.5353067 23.47108,63.1999774 23.47108,83.7594509 C23.47108,104.321659 40.271577,121 61,121 Z" id="Path"></path>
                    <path d="M59.527027,46.9723854 C59.6891892,46.9861927 59.8378378,47 60,47 C47.2972973,47 37,36.4788484 37,23.4861927 C37,10.7696827 46.8783784,0.414218566 59.2297297,0 C51.972973,0.414218566 46.2027027,6.55846063 46.2027027,14.0834313 C46.2027027,21.8707403 52.3783784,28.1944771 60,28.1944771 C54.9189189,28.1944771 50.7972973,32.4056992 50.7972973,37.5972385 C50.7972973,42.6230905 54.6621622,46.7376616 59.527027,46.9723854 Z" id="Path"></path>
                    <path d="M84,23.4861927 C84,36.4788484 73.7087493,47 61,47 C61.1620669,47 61.3106283,46.9861927 61.4726952,46.9723854 C66.3347035,46.7376616 70.1972989,42.6230905 70.1972989,37.5972385 C70.1972989,32.4056992 66.0780975,28.1944771 61,28.1944771 C68.6306518,28.1944771 74.8027011,21.8707403 74.8027011,14.0834313 C74.8027011,6.55846063 69.0358191,0.414218566 61.769818,0 C74.1274222,0.414218566 84,10.7696827 84,23.4861927 Z" id="Path"></path>
                    <path d="M59.527027,46.9723854 C59.6891892,46.9861927 59.8378378,47 60,47 C47.2972973,47 37,36.4788484 37,23.4861927 C37,10.7696827 46.8783784,0.414218566 59.2297297,0 C51.972973,0.414218566 46.2027027,6.55846063 46.2027027,14.0834313 C46.2027027,21.8707403 52.3783784,28.1944771 60,28.1944771 C54.9189189,28.1944771 50.7972973,32.4056992 50.7972973,37.5972385 C50.7972973,42.6230905 54.6621622,46.7376616 59.527027,46.9723854 Z" id="Path"></path>
                    <path d="M84,23.4861927 C84,36.4788484 73.7087493,47 61,47 C61.1620669,47 61.3106283,46.9861927 61.4726952,46.9723854 C66.3347035,46.7376616 70.1972989,42.6230905 70.1972989,37.5972385 C70.1972989,32.4056992 66.0780975,28.1944771 61,28.1944771 C68.6306518,28.1944771 74.8027011,21.8707403 74.8027011,14.0834313 C74.8027011,6.55846063 69.0358191,0.414218566 61.769818,0 C74.1274222,0.414218566 84,10.7696827 84,23.4861927 Z" id="Path"></path>
                    <path d="M75,13.9931473 C75,21.7229564 68.7366618,28 60.9931473,28 C53.2633382,28 47,21.7229564 47,13.9931473 C47,6.5237396 52.8521782,0.424865394 60.2119432,0.0137053353 C60.4723446,0.0137053353 60.732746,0 60.9931473,0 C61.2535487,0 61.5139501,0.0137053353 61.7743514,0.0137053353 C69.1478218,0.424865394 75,6.5237396 75,13.9931473 Z" id="Path"></path>
                    <path d="M70,37.5139706 C70,42.5992647 66.010279,46.7625 60.9882526,47 C63.3876652,46.7625 65.256975,44.7227941 65.256975,42.2639706 C65.256975,39.6375 63.1226138,37.5139706 60.5,37.5139706 C57.8773862,37.5139706 55.756975,39.6375 55.756975,42.2639706 C55.756975,44.7227941 57.6262849,46.7625 60.0117474,47 C54.989721,46.7625 51,42.5992647 51,37.5139706 C51,32.2610294 55.2547724,28 60.5,28 C65.7452276,28 70,32.2610294 70,37.5139706 Z" id="Path"></path>
                </g>
            </g>
        </g>
    </g>
</svg>