<?xml version="1.0" encoding="UTF-8"?>
<svg width="181px" height="106px" viewBox="0 0 181 106" version="1.1" xmlns="http://www.w3.org/2000/svg" xmlns:xlink="http://www.w3.org/1999/xlink">
    <!-- Generator: Sketch 52.5 (67469) - http://www.bohemiancoding.com/sketch -->
    <title>Group 15 Copy</title>
    <desc>Created with Sketch.</desc>
    <g id="Desktop" stroke="none" stroke-width="1" fill="none" fill-rule="evenodd">
        <g id="Assemble-case-study" transform="translate(-1007.000000, -9411.000000)" stroke="#333333">
            <g id="Group-127" transform="translate(813.000000, 9403.000000)">
                <g id="Group-15-Copy" transform="translate(195.000000, 9.000000)">
                    <g id="Group-3" transform="translate(51.000000, 0.000000)">
                        <ellipse id="Circle-3" cx="37.4773968" cy="54.6618809" rx="37.3712037" ry="37.4002343"></ellipse>
                        <ellipse id="Circle-1" cx="38.4608495" cy="10.548784" rx="10.81798" ry="10.548784"></ellipse>
                    </g>
                    <ellipse id="Circle-2" transform="translate(28.681405, 65.998633) scale(-1, 1) rotate(8.000000) translate(-28.681405, -65.998633) " cx="28.6814048" cy="65.998633" rx="24.979319" ry="24.4048508"></ellipse>
                    <ellipse id="Circle-2" transform="translate(34.232644, 75.037009) scale(-1, 1) rotate(8.000000) translate(-34.232644, -75.037009) " cx="34.2326444" cy="75.0370086" rx="24.979319" ry="24.4048508"></ellipse>
                    <circle id="Circle-1" cx="10" cy="41" r="10"></circle>
                    <ellipse id="Circle-2" transform="translate(148.809799, 66.189140) rotate(5.000000) translate(-148.809799, -66.189140) " cx="148.809799" cy="66.18914" rx="24.9800845" ry="24.4040991"></ellipse>
                    <ellipse id="Circle-3" cx="88" cy="66.5" rx="37" ry="37.5"></ellipse>
                    <ellipse id="Circle-2" transform="translate(142.688737, 76.845697) rotate(5.000000) translate(-142.688737, -76.845697) " cx="142.688737" cy="76.845697" rx="24.9800845" ry="24.4040991"></ellipse>
                    <ellipse id="Circle-1" transform="translate(168.621876, 41.878400) scale(-1, 1) rotate(-3.000000) translate(-168.621876, -41.878400) " cx="168.621876" cy="41.8783998" rx="10.1772" ry="9.9422843"></ellipse>
                </g>
            </g>
        </g>
    </g>
</svg>