<?xml version="1.0" encoding="UTF-8"?>
<svg width="55px" height="62px" viewBox="0 0 55 62" version="1.1" xmlns="http://www.w3.org/2000/svg" xmlns:xlink="http://www.w3.org/1999/xlink">
    <!-- Generator: Sketch 52.6 (67491) - http://www.bohemiancoding.com/sketch -->
    <title>noun_Creative design thinking_898457</title>
    <desc>Created with Sketch.</desc>
    <g id="Desktop" stroke="none" stroke-width="1" fill="none" fill-rule="evenodd">
        <g id="noun_Creative-design-thinking_898457" fill="#000000">
            <g id="Group">
                <path d="M55,0.019 L49.187,4.379 L43.341,18.019 L38.64,18.019 L36.794,14.019 L38,14.019 C40.206,14.019 42,12.225 42,10.019 L42,6.019 L44,6.019 L44,0.019 L38,0.019 L38,6.019 L40,6.019 L40,10.019 C40,11.122 39.103,12.019 38,12.019 L35.871,12.019 L33.315,6.48 L36.377,4.95 L26.351,0.652 L23.994,8.9 C23.93,3.992 19.923,0.019 15,0.019 C10.037,0.019 6,4.056 6,9.019 C6,12.018 7.519,14.831 10,16.494 L10,18.019 L7.578,18.019 L7.422,18.83 C6.936,21.351 6.891,23.937 7.288,26.521 L0.474,38.678 L8.016,40.398 L8.016,53 L18.016,53 L18.016,62 L42.016,62 L42.016,48.065 C48.91,43.113 53.006,35.151 53,26.657 L52.998,23.009 C52.998,21.634 52.869,20.231 52.613,18.838 L52.463,18.019 L50.5,18.019 L55,7.219 L55,0.019 Z M40,2.019 L42,2.019 L42,4.019 L40,4.019 L40,2.019 Z M53,5.4 L51.894,4.847 L53,4.019 L53,5.4 Z M36.437,18.019 L32.644,18.019 L30.826,14.019 L34.591,14.019 L36.437,18.019 Z M28.629,14.019 L30.447,18.019 L26,18.019 L26,16.019 C26,14.916 26.897,14.019 28,14.019 L28.629,14.019 Z M27.649,3.385 L31.624,5.088 L30.686,5.558 L33.668,12.019 L29.917,12.019 L27.48,6.66 L26.585,7.107 L27.649,3.385 Z M26.52,9.377 L27.733,12.046 C25.653,12.186 24,13.904 24,16.019 L24,18.019 L20,18.019 L20,16.494 C22.001,15.153 23.359,13.06 23.817,10.729 L26.52,9.377 Z M11.501,15.074 C9.342,13.823 8,11.503 8,9.019 C8,5.16 11.141,2.019 15,2.019 C18.859,2.019 22,5.16 22,9.019 C22,11.503 20.658,13.824 18.499,15.075 L18,15.363 L18,18.018 L16,18.018 L16,11.834 C17.161,11.42 18,10.32 18,9.018 C18,7.364 16.654,6.018 15,6.018 C13.346,6.018 12,7.364 12,9.018 C12,10.32 12.839,11.42 14,11.834 L14,18.018 L12,18.018 L12,15.363 L11.501,15.074 Z M14,9.019 C14,8.467 14.448,8.019 15,8.019 C15.552,8.019 16,8.467 16,9.019 C16,9.571 15.552,10.019 15,10.019 C14.448,10.019 14,9.57 14,9.019 Z M50.998,23.01 L51,26.659 C51.006,34.67 47.061,42.17 40.448,46.722 L40.015,47.02 L40.015,60 L20.015,60 L20.015,51 L10.015,51 L10.015,38.802 L3.526,37.323 L9.376,26.886 L9.317,26.538 C8.946,24.35 8.922,22.161 9.246,20.018 L10,20.018 L20,20.018 L50.78,20.018 C50.925,21.021 50.998,22.023 50.998,23.01 Z M45.516,18.019 L50.501,6.388 L52.718,7.496 L48.334,18.019 L45.516,18.019 Z" id="Shape" fill-rule="nonzero"></path>
                <path d="M17,26.019 C15.346,26.019 14,24.673 14,23.019 L12,23.019 C12,25.776 14.243,28.019 17,28.019 C19.757,28.019 22,25.776 22,23.019 L20,23.019 C20,24.673 18.654,26.019 17,26.019 Z" id="Path"></path>
            </g>
        </g>
    </g>
</svg>