<?xml version="1.0" encoding="UTF-8"?>
<svg width="55px" height="55px" viewBox="0 0 55 55" version="1.1" xmlns="http://www.w3.org/2000/svg" xmlns:xlink="http://www.w3.org/1999/xlink">
    <!-- Generator: Sketch 52.6 (67491) - http://www.bohemiancoding.com/sketch -->
    <title>noun_design_1969658</title>
    <desc>Created with Sketch.</desc>
    <g id="Desktop" stroke="none" stroke-width="1" fill="none" fill-rule="evenodd">
        <g id="noun_design_1969658" fill="#000000">
            <polygon id="Path" points="17.81 26.585 15.2733333 24.0483333 18.0983333 21.2216667 16.9716667 20.0933333 14.145 22.9183333 11.0716667 19.8466667 15.46 15.46 14.3316667 14.3316667 9.94333333 18.7166667 6.87 15.645 9.695 12.8183333 8.56666667 11.69 5.74166667 14.515 3.09 11.865 11.865 3.09 26.5816667 17.8066667 27.71 16.6783333 11.865 0.833333333 0.833333333 11.865 16.6816667 27.7116667"></polygon>
            <polygon id="Path" points="38.3183333 27.2866667 37.1883333 28.415 51.91 43.135 43.135 51.91 40.485 49.2583333 43.31 46.4333333 42.1816667 45.305 39.355 48.13 36.2833333 45.0566667 40.6683333 40.6683333 39.54 39.54 35.1533333 43.9283333 32.0816667 40.855 34.9066667 38.0283333 33.7783333 36.9016667 30.9533333 39.7266667 28.4183333 37.1933333 27.29 38.3216667 43.135 54.1666667 54.1666667 43.135"></polygon>
            <path d="M51.285,10.6116667 C52.3916667,9.505 52.39,7.705 51.285,6.6 L48.4016667,3.71666667 C47.3283333,2.64333333 45.4616667,2.645 44.39,3.71666667 L7.88666667,40.2166667 C7.81666667,40.2866667 7.78166667,40.3783333 7.74166667,40.4666667 L7.72166667,40.4583333 L3.17333333,50.775 C3.04,51.0766667 3.10666667,51.4283333 3.34,51.6616667 C3.49333333,51.815 3.69666667,51.895 3.90333333,51.895 C4.01166667,51.895 4.12166667,51.8733333 4.225,51.8266667 L14.5416667,47.2783333 L14.54,47.275 C14.6283333,47.2366667 14.7133333,47.1833333 14.7833333,47.1116667 L51.285,10.6116667 Z M45.5166667,4.84333333 C45.9866667,4.37833333 46.8016667,4.375 47.2716667,4.84333333 L50.1566667,7.72833333 C50.64,8.21166667 50.64,9 50.1566667,9.48333333 L47.4766667,12.1633333 L42.8366667,7.52333333 L45.5166667,4.84333333 Z M11.24,46.99 L8.01,43.76 L8.90333333,41.7366667 L12.31,42.6916667 L13.265,46.0983333 L11.24,46.99 Z M7.32,45.3266667 L9.675,47.6816667 L5.46333333,49.5383333 L7.32,45.3266667 Z M13.725,41.8283333 C13.65,41.56 13.44,41.35 13.1716667,41.275 L9.97833333,40.38 L41.7083333,8.65166667 L46.3483333,13.2933333 L14.62,45.02 L13.725,41.8283333 Z" id="Shape" fill-rule="nonzero"></path>
            <polygon id="Rectangle" transform="translate(28.773411, 26.225318) rotate(-45.000000) translate(-28.773411, -26.225318) " points="10.1010898 25.4269919 47.4457317 25.4269919 47.4457317 27.0236433 10.1010898 27.0236433"></polygon>
        </g>
    </g>
</svg>